<svg width="14" height="8" viewBox="0 0 14 8" fill="none" xmlns="http://www.w3.org/2000/svg">
<path d="M12.9014 3.60421C12.9012 3.60406 12.9011 3.60388 12.9009 3.60373L10.3081 1.0234C10.1139 0.830102 9.79968 0.830821 9.60633 1.02509C9.41301 1.21933 9.41375 1.53351 9.60799 1.72684L11.3488 3.45924L0.839968 3.45924C0.565907 3.45924 0.34375 3.68139 0.34375 3.95545C0.34375 4.22951 0.565907 4.45167 0.839968 4.45167L11.3488 4.45167L9.60802 6.18407C9.41377 6.37739 9.41303 6.69157 9.60636 6.88582C9.79971 7.08011 10.1139 7.08078 10.3081 6.8875L12.901 4.30717C12.9011 4.30702 12.9012 4.30685 12.9014 4.3067C13.0958 4.11273 13.0951 3.79753 12.9014 3.60421Z" fill="white"/>
</svg>
