<svg width="20" height="20" viewBox="0 0 20 20" fill="#151515" xmlns="http://www.w3.org/2000/svg">
    <path fill-rule="evenodd" clip-rule="evenodd" d="M0 10C0 4.48578 4.48578 0 10 0C15.5142 0 20 4.48578 20 10C20 15.5142 15.5142 20 10 20C4.48578 20 0 15.5142 0 10ZM1.25 10C1.25 14.825 5.17502 18.75 10 18.75C14.825 18.75 18.75 14.825 18.75 10C18.75 5.17502 14.825 1.25 10 1.25C5.17502 1.25 1.25 5.17502 1.25 10ZM9.99994 5.38477C9.57533 5.38477 9.23071 5.66476 9.23071 6.00977V9.23083H5.24023C4.89523 9.23083 4.61523 9.57544 4.61523 10.0001C4.61523 10.4247 4.89523 10.7693 5.24023 10.7693H9.23071V14.7598C9.23071 15.1048 9.57533 15.3848 9.99994 15.3848C10.4246 15.3848 10.7692 15.1048 10.7692 14.7598V10.7693H13.9902C14.3352 10.7693 14.6152 10.4247 14.6152 10.0001C14.6152 9.57544 14.3352 9.23083 13.9902 9.23083H10.7692V6.00977C10.7692 5.66476 10.4246 5.38477 9.99994 5.38477Z"  />
</svg>
