<svg width="15" height="14" viewBox="0 0 15 14" fill="none" xmlns="http://www.w3.org/2000/svg">
<path d="M0.0160293 6.98403C0.0148226 7.511 0.441415 7.93955 0.968386 7.94076L6.05928 7.95241L6.04762 13.0433C6.04642 13.5703 6.47301 13.9988 6.99998 14C7.52695 14.0012 7.9555 13.5747 7.95671 13.0477L7.96837 7.95679L13.0593 7.96844C13.5862 7.96965 14.0148 7.54306 14.016 7.01609C14.0172 6.48911 13.5906 6.06056 13.0636 6.05936L7.97274 6.0477L7.9844 0.956804C7.9856 0.429833 7.55901 0.00128157 7.03204 7.48518e-05C6.50507 -0.00113187 6.07652 0.425461 6.07531 0.952433L6.06365 6.04333L0.972758 6.03167C0.445787 6.03046 0.0172361 6.45706 0.0160293 6.98403Z" fill="#151515"/>
</svg>
