<svg width="985" height="329" viewBox="0 0 985 329" fill="none" xmlns="http://www.w3.org/2000/svg">
<path d="M73.855 321.12C73.175 321.12 72.575 320.99 72.055 320.73C71.545 320.47 71.145 320.105 70.855 319.635C70.575 319.155 70.435 318.605 70.435 317.985V317.295C70.435 317.165 70.5 317.1 70.63 317.1H71.305C71.435 317.1 71.5 317.165 71.5 317.295V317.985C71.5 318.645 71.715 319.18 72.145 319.59C72.585 319.99 73.155 320.19 73.855 320.19C74.565 320.19 75.135 319.99 75.565 319.59C76.005 319.18 76.225 318.645 76.225 317.985V310.695C76.225 310.565 76.29 310.5 76.42 310.5H77.095C77.225 310.5 77.29 310.565 77.29 310.695V317.985C77.29 318.605 77.145 319.155 76.855 319.635C76.575 320.105 76.175 320.47 75.655 320.73C75.135 320.99 74.535 321.12 73.855 321.12ZM82.5262 313.29C83.4262 313.29 84.1212 313.52 84.6112 313.98C85.1112 314.44 85.3612 315.05 85.3612 315.81V320.805C85.3612 320.935 85.2962 321 85.1662 321H84.4912C84.3612 321 84.2962 320.935 84.2962 320.805V320.265C84.2962 320.235 84.2862 320.215 84.2662 320.205C84.2462 320.195 84.2262 320.205 84.2062 320.235C83.9362 320.525 83.5962 320.745 83.1862 320.895C82.7862 321.045 82.3462 321.12 81.8662 321.12C81.1662 321.12 80.5762 320.94 80.0962 320.58C79.6262 320.22 79.3912 319.67 79.3912 318.93C79.3912 318.18 79.6612 317.59 80.2012 317.16C80.7512 316.72 81.5112 316.5 82.4812 316.5H84.2212C84.2712 316.5 84.2962 316.475 84.2962 316.425V315.87C84.2962 315.36 84.1512 314.96 83.8612 314.67C83.5812 314.37 83.1412 314.22 82.5412 314.22C82.0712 314.22 81.6862 314.31 81.3862 314.49C81.0862 314.67 80.8962 314.92 80.8162 315.24C80.7862 315.36 80.7112 315.41 80.5912 315.39L79.8562 315.3C79.7262 315.28 79.6662 315.225 79.6762 315.135C79.7762 314.585 80.0812 314.14 80.5912 313.8C81.1112 313.46 81.7562 313.29 82.5262 313.29ZM82.1062 320.205C82.6962 320.205 83.2062 320.06 83.6362 319.77C84.0762 319.47 84.2962 319.07 84.2962 318.57V317.415C84.2962 317.365 84.2712 317.34 84.2212 317.34H82.6462C81.9862 317.34 81.4562 317.475 81.0562 317.745C80.6562 318.015 80.4562 318.39 80.4562 318.87C80.4562 319.31 80.6112 319.645 80.9212 319.875C81.2312 320.095 81.6262 320.205 82.1062 320.205ZM90.7123 313.305C91.5023 313.305 92.1323 313.54 92.6023 314.01C93.0823 314.48 93.3223 315.11 93.3223 315.9V320.805C93.3223 320.935 93.2573 321 93.1273 321H92.4523C92.3223 321 92.2573 320.935 92.2573 320.805V316.11C92.2573 315.55 92.0923 315.1 91.7623 314.76C91.4323 314.41 91.0023 314.235 90.4723 314.235C89.9623 314.235 89.5373 314.38 89.1973 314.67C88.8673 314.96 88.6773 315.34 88.6273 315.81V320.805C88.6273 320.935 88.5623 321 88.4323 321H87.7573C87.6273 321 87.5623 320.935 87.5623 320.805V313.605C87.5623 313.475 87.6273 313.41 87.7573 313.41H88.4323C88.5623 313.41 88.6273 313.475 88.6273 313.605V314.16C88.6273 314.19 88.6373 314.215 88.6573 314.235C88.6773 314.245 88.6923 314.235 88.7023 314.205C89.1423 313.605 89.8123 313.305 90.7123 313.305Z" fill="#151515"/>
<path d="M156.19 311.235C156.19 311.365 156.125 311.43 155.995 311.43H150.55C150.5 311.43 150.475 311.455 150.475 311.505V315.18C150.475 315.23 150.5 315.255 150.55 315.255H154.345C154.475 315.255 154.54 315.32 154.54 315.45V315.99C154.54 316.12 154.475 316.185 154.345 316.185H150.55C150.5 316.185 150.475 316.21 150.475 316.26V320.805C150.475 320.935 150.41 321 150.28 321H149.605C149.475 321 149.41 320.935 149.41 320.805V310.695C149.41 310.565 149.475 310.5 149.605 310.5H155.995C156.125 310.5 156.19 310.565 156.19 310.695V311.235ZM160.08 320.205C160.53 320.195 160.915 320.095 161.235 319.905C161.565 319.705 161.82 319.43 162 319.08C162.02 319.03 162.055 318.995 162.105 318.975C162.155 318.955 162.205 318.96 162.255 318.99L162.69 319.23C162.81 319.3 162.84 319.385 162.78 319.485C162.54 319.985 162.18 320.385 161.7 320.685C161.22 320.975 160.65 321.12 159.99 321.12C159.29 321.12 158.7 320.955 158.22 320.625C157.74 320.295 157.395 319.835 157.185 319.245C156.995 318.745 156.9 318.055 156.9 317.175C156.9 316.745 156.905 316.405 156.915 316.155C156.935 315.895 156.975 315.655 157.035 315.435C157.205 314.785 157.545 314.265 158.055 313.875C158.575 313.485 159.2 313.29 159.93 313.29C160.8 313.29 161.48 313.515 161.97 313.965C162.47 314.415 162.79 315.05 162.93 315.87C162.99 316.19 163.02 316.69 163.02 317.37C163.02 317.5 162.955 317.565 162.825 317.565H158.025C157.975 317.565 157.95 317.59 157.95 317.64C157.95 318.14 157.98 318.505 158.04 318.735C158.15 319.185 158.38 319.545 158.73 319.815C159.09 320.075 159.54 320.205 160.08 320.205ZM159.93 314.22C159.43 314.22 159.02 314.35 158.7 314.61C158.38 314.86 158.17 315.2 158.07 315.63C158.01 315.83 157.97 316.17 157.95 316.65C157.95 316.7 157.975 316.725 158.025 316.725H161.88C161.93 316.725 161.955 316.7 161.955 316.65C161.935 316.21 161.905 315.89 161.865 315.69C161.755 315.24 161.53 314.885 161.19 314.625C160.86 314.355 160.44 314.22 159.93 314.22ZM170.973 315.345C171.093 315.755 171.153 316.375 171.153 317.205C171.153 318.025 171.083 318.66 170.943 319.11C170.763 319.73 170.433 320.22 169.953 320.58C169.483 320.94 168.898 321.12 168.198 321.12C167.798 321.12 167.433 321.04 167.103 320.88C166.783 320.72 166.513 320.495 166.293 320.205C166.273 320.185 166.253 320.18 166.233 320.19C166.213 320.19 166.203 320.205 166.203 320.235V320.805C166.203 320.935 166.138 321 166.008 321H165.333C165.203 321 165.138 320.935 165.138 320.805V310.695C165.138 310.565 165.203 310.5 165.333 310.5H166.008C166.138 310.5 166.203 310.565 166.203 310.695V314.16C166.203 314.19 166.213 314.21 166.233 314.22C166.253 314.23 166.273 314.22 166.293 314.19C166.513 313.9 166.788 313.68 167.118 313.53C167.448 313.37 167.808 313.29 168.198 313.29C168.908 313.29 169.503 313.475 169.983 313.845C170.463 314.205 170.793 314.705 170.973 315.345ZM169.818 319.02C169.918 318.81 169.988 318.575 170.028 318.315C170.068 318.045 170.088 317.675 170.088 317.205C170.088 316.715 170.058 316.335 169.998 316.065C169.948 315.785 169.863 315.535 169.743 315.315C169.613 314.985 169.403 314.72 169.113 314.52C168.823 314.32 168.478 314.22 168.078 314.22C167.698 314.22 167.368 314.325 167.088 314.535C166.818 314.735 166.623 315.005 166.503 315.345C166.403 315.555 166.333 315.8 166.293 316.08C166.253 316.35 166.233 316.725 166.233 317.205C166.233 317.685 166.253 318.06 166.293 318.33C166.333 318.6 166.398 318.835 166.488 319.035C166.618 319.385 166.818 319.665 167.088 319.875C167.358 320.085 167.693 320.19 168.093 320.19C168.513 320.19 168.873 320.085 169.173 319.875C169.483 319.665 169.698 319.38 169.818 319.02Z" fill="#151515"/>
<path d="M227.605 321C227.475 321 227.41 320.935 227.41 320.805V310.695C227.41 310.565 227.475 310.5 227.605 310.5H228.31C228.4 310.5 228.475 310.545 228.535 310.635L231.28 314.97C231.31 315.03 231.34 315.03 231.37 314.97L234.13 310.635C234.19 310.545 234.265 310.5 234.355 310.5H235.06C235.19 310.5 235.255 310.565 235.255 310.695V320.805C235.255 320.935 235.19 321 235.06 321H234.385C234.255 321 234.19 320.935 234.19 320.805V312.525C234.19 312.485 234.18 312.465 234.16 312.465C234.14 312.465 234.12 312.48 234.1 312.51L231.73 316.26C231.67 316.35 231.595 316.395 231.505 316.395H231.16C231.07 316.395 230.995 316.35 230.935 316.26L228.565 312.51C228.545 312.48 228.525 312.465 228.505 312.465C228.485 312.465 228.475 312.485 228.475 312.525V320.805C228.475 320.935 228.41 321 228.28 321H227.605ZM240.489 313.29C241.389 313.29 242.084 313.52 242.574 313.98C243.074 314.44 243.324 315.05 243.324 315.81V320.805C243.324 320.935 243.259 321 243.129 321H242.454C242.324 321 242.259 320.935 242.259 320.805V320.265C242.259 320.235 242.249 320.215 242.229 320.205C242.209 320.195 242.189 320.205 242.169 320.235C241.899 320.525 241.559 320.745 241.149 320.895C240.749 321.045 240.309 321.12 239.829 321.12C239.129 321.12 238.539 320.94 238.059 320.58C237.589 320.22 237.354 319.67 237.354 318.93C237.354 318.18 237.624 317.59 238.164 317.16C238.714 316.72 239.474 316.5 240.444 316.5H242.184C242.234 316.5 242.259 316.475 242.259 316.425V315.87C242.259 315.36 242.114 314.96 241.824 314.67C241.544 314.37 241.104 314.22 240.504 314.22C240.034 314.22 239.649 314.31 239.349 314.49C239.049 314.67 238.859 314.92 238.779 315.24C238.749 315.36 238.674 315.41 238.554 315.39L237.819 315.3C237.689 315.28 237.629 315.225 237.639 315.135C237.739 314.585 238.044 314.14 238.554 313.8C239.074 313.46 239.719 313.29 240.489 313.29ZM240.069 320.205C240.659 320.205 241.169 320.06 241.599 319.77C242.039 319.47 242.259 319.07 242.259 318.57V317.415C242.259 317.365 242.234 317.34 242.184 317.34H240.609C239.949 317.34 239.419 317.475 239.019 317.745C238.619 318.015 238.419 318.39 238.419 318.87C238.419 319.31 238.574 319.645 238.884 319.875C239.194 320.095 239.589 320.205 240.069 320.205ZM248.585 313.335C248.915 313.335 249.19 313.395 249.41 313.515C249.51 313.555 249.545 313.635 249.515 313.755L249.365 314.415C249.335 314.535 249.255 314.575 249.125 314.535C248.935 314.475 248.69 314.45 248.39 314.46C247.87 314.48 247.44 314.675 247.1 315.045C246.76 315.405 246.59 315.865 246.59 316.425V320.805C246.59 320.935 246.525 321 246.395 321H245.72C245.59 321 245.525 320.935 245.525 320.805V313.605C245.525 313.475 245.59 313.41 245.72 313.41H246.395C246.525 313.41 246.59 313.475 246.59 313.605V314.445C246.59 314.485 246.595 314.51 246.605 314.52C246.625 314.52 246.645 314.505 246.665 314.475C246.875 314.115 247.14 313.835 247.46 313.635C247.79 313.435 248.165 313.335 248.585 313.335Z" fill="#151515"/>
<path d="M313.665 321C313.555 321 313.485 320.945 313.455 320.835L312.855 319.005C312.835 318.965 312.81 318.945 312.78 318.945H308.31C308.28 318.945 308.255 318.965 308.235 319.005L307.65 320.835C307.62 320.945 307.55 321 307.44 321H306.72C306.65 321 306.6 320.98 306.57 320.94C306.54 320.9 306.535 320.845 306.555 320.775L309.855 310.665C309.885 310.555 309.955 310.5 310.065 310.5H311.025C311.135 310.5 311.205 310.555 311.235 310.665L314.55 320.775C314.56 320.795 314.565 320.82 314.565 320.85C314.565 320.89 314.545 320.925 314.505 320.955C314.475 320.985 314.435 321 314.385 321H313.665ZM308.565 317.985C308.555 318.045 308.575 318.075 308.625 318.075H312.48C312.54 318.075 312.56 318.045 312.54 317.985L310.59 311.85C310.58 311.81 310.565 311.79 310.545 311.79C310.525 311.79 310.51 311.81 310.5 311.85L308.565 317.985ZM322.206 315.3C322.346 315.75 322.416 316.385 322.416 317.205C322.416 318.035 322.356 318.655 322.236 319.065C322.056 319.705 321.726 320.21 321.246 320.58C320.766 320.94 320.171 321.12 319.461 321.12C319.071 321.12 318.711 321.045 318.381 320.895C318.051 320.735 317.776 320.51 317.556 320.22C317.536 320.19 317.516 320.18 317.496 320.19C317.476 320.2 317.466 320.22 317.466 320.25V323.715C317.466 323.845 317.401 323.91 317.271 323.91H316.596C316.466 323.91 316.401 323.845 316.401 323.715V313.605C316.401 313.475 316.466 313.41 316.596 313.41H317.271C317.401 313.41 317.466 313.475 317.466 313.605V314.175C317.466 314.205 317.476 314.225 317.496 314.235C317.516 314.235 317.536 314.225 317.556 314.205C317.776 313.915 318.046 313.69 318.366 313.53C318.696 313.37 319.061 313.29 319.461 313.29C320.161 313.29 320.746 313.47 321.216 313.83C321.696 314.19 322.026 314.68 322.206 315.3ZM321.006 319.095C321.126 318.875 321.211 318.63 321.261 318.36C321.321 318.08 321.351 317.695 321.351 317.205C321.351 316.735 321.331 316.37 321.291 316.11C321.251 315.84 321.181 315.6 321.081 315.39C320.961 315.03 320.746 314.745 320.436 314.535C320.136 314.325 319.776 314.22 319.356 314.22C318.956 314.22 318.621 314.325 318.351 314.535C318.081 314.745 317.881 315.025 317.751 315.375C317.661 315.575 317.596 315.81 317.556 316.08C317.516 316.35 317.496 316.725 317.496 317.205C317.496 317.685 317.516 318.065 317.556 318.345C317.596 318.615 317.666 318.855 317.766 319.065C317.886 319.405 318.081 319.68 318.351 319.89C318.631 320.09 318.961 320.19 319.341 320.19C319.741 320.19 320.086 320.09 320.376 319.89C320.666 319.69 320.876 319.425 321.006 319.095ZM327.589 313.335C327.919 313.335 328.194 313.395 328.414 313.515C328.514 313.555 328.549 313.635 328.519 313.755L328.369 314.415C328.339 314.535 328.259 314.575 328.129 314.535C327.939 314.475 327.694 314.45 327.394 314.46C326.874 314.48 326.444 314.675 326.104 315.045C325.764 315.405 325.594 315.865 325.594 316.425V320.805C325.594 320.935 325.529 321 325.399 321H324.724C324.594 321 324.529 320.935 324.529 320.805V313.605C324.529 313.475 324.594 313.41 324.724 313.41H325.399C325.529 313.41 325.594 313.475 325.594 313.605V314.445C325.594 314.485 325.599 314.51 325.609 314.52C325.629 314.52 325.649 314.505 325.669 314.475C325.879 314.115 326.144 313.835 326.464 313.635C326.794 313.435 327.169 313.335 327.589 313.335Z" fill="#151515"/>
<path d="M384.605 321C384.475 321 384.41 320.935 384.41 320.805V310.695C384.41 310.565 384.475 310.5 384.605 310.5H385.31C385.4 310.5 385.475 310.545 385.535 310.635L388.28 314.97C388.31 315.03 388.34 315.03 388.37 314.97L391.13 310.635C391.19 310.545 391.265 310.5 391.355 310.5H392.06C392.19 310.5 392.255 310.565 392.255 310.695V320.805C392.255 320.935 392.19 321 392.06 321H391.385C391.255 321 391.19 320.935 391.19 320.805V312.525C391.19 312.485 391.18 312.465 391.16 312.465C391.14 312.465 391.12 312.48 391.1 312.51L388.73 316.26C388.67 316.35 388.595 316.395 388.505 316.395H388.16C388.07 316.395 387.995 316.35 387.935 316.26L385.565 312.51C385.545 312.48 385.525 312.465 385.505 312.465C385.485 312.465 385.475 312.485 385.475 312.525V320.805C385.475 320.935 385.41 321 385.28 321H384.605ZM397.489 313.29C398.389 313.29 399.084 313.52 399.574 313.98C400.074 314.44 400.324 315.05 400.324 315.81V320.805C400.324 320.935 400.259 321 400.129 321H399.454C399.324 321 399.259 320.935 399.259 320.805V320.265C399.259 320.235 399.249 320.215 399.229 320.205C399.209 320.195 399.189 320.205 399.169 320.235C398.899 320.525 398.559 320.745 398.149 320.895C397.749 321.045 397.309 321.12 396.829 321.12C396.129 321.12 395.539 320.94 395.059 320.58C394.589 320.22 394.354 319.67 394.354 318.93C394.354 318.18 394.624 317.59 395.164 317.16C395.714 316.72 396.474 316.5 397.444 316.5H399.184C399.234 316.5 399.259 316.475 399.259 316.425V315.87C399.259 315.36 399.114 314.96 398.824 314.67C398.544 314.37 398.104 314.22 397.504 314.22C397.034 314.22 396.649 314.31 396.349 314.49C396.049 314.67 395.859 314.92 395.779 315.24C395.749 315.36 395.674 315.41 395.554 315.39L394.819 315.3C394.689 315.28 394.629 315.225 394.639 315.135C394.739 314.585 395.044 314.14 395.554 313.8C396.074 313.46 396.719 313.29 397.489 313.29ZM397.069 320.205C397.659 320.205 398.169 320.06 398.599 319.77C399.039 319.47 399.259 319.07 399.259 318.57V317.415C399.259 317.365 399.234 317.34 399.184 317.34H397.609C396.949 317.34 396.419 317.475 396.019 317.745C395.619 318.015 395.419 318.39 395.419 318.87C395.419 319.31 395.574 319.645 395.884 319.875C396.194 320.095 396.589 320.205 397.069 320.205ZM402.092 324C402.022 324 401.987 323.935 401.987 323.805V323.28C401.987 323.15 402.022 323.085 402.092 323.085H402.197C402.587 323.085 402.887 323.03 403.097 322.92C403.317 322.81 403.502 322.615 403.652 322.335C403.812 322.055 403.982 321.625 404.162 321.045C404.172 321.025 404.172 320.995 404.162 320.955L401.642 313.635C401.632 313.615 401.627 313.59 401.627 313.56C401.627 313.52 401.642 313.485 401.672 313.455C401.712 313.425 401.757 313.41 401.807 313.41H402.512C402.632 313.41 402.707 313.465 402.737 313.575L404.672 319.455C404.682 319.495 404.697 319.515 404.717 319.515C404.737 319.515 404.752 319.495 404.762 319.455L406.652 313.575C406.682 313.465 406.752 313.41 406.862 313.41H407.582C407.652 313.41 407.702 313.43 407.732 313.47C407.762 313.51 407.767 313.565 407.747 313.635L404.987 321.66C404.747 322.33 404.522 322.825 404.312 323.145C404.102 323.465 403.837 323.685 403.517 323.805C403.207 323.935 402.767 324 402.197 324H402.092Z" fill="#151515"/>
<path d="M468.855 321.12C468.175 321.12 467.575 320.99 467.055 320.73C466.545 320.47 466.145 320.105 465.855 319.635C465.575 319.155 465.435 318.605 465.435 317.985V317.295C465.435 317.165 465.5 317.1 465.63 317.1H466.305C466.435 317.1 466.5 317.165 466.5 317.295V317.985C466.5 318.645 466.715 319.18 467.145 319.59C467.585 319.99 468.155 320.19 468.855 320.19C469.565 320.19 470.135 319.99 470.565 319.59C471.005 319.18 471.225 318.645 471.225 317.985V310.695C471.225 310.565 471.29 310.5 471.42 310.5H472.095C472.225 310.5 472.29 310.565 472.29 310.695V317.985C472.29 318.605 472.145 319.155 471.855 319.635C471.575 320.105 471.175 320.47 470.655 320.73C470.135 320.99 469.535 321.12 468.855 321.12ZM479.491 313.605C479.491 313.475 479.556 313.41 479.686 313.41H480.361C480.491 313.41 480.556 313.475 480.556 313.605V320.805C480.556 320.935 480.491 321 480.361 321H479.686C479.556 321 479.491 320.935 479.491 320.805V320.235C479.491 320.205 479.481 320.185 479.461 320.175C479.441 320.165 479.421 320.175 479.401 320.205C478.971 320.805 478.311 321.105 477.421 321.105C476.941 321.105 476.496 321.01 476.086 320.82C475.686 320.62 475.366 320.335 475.126 319.965C474.896 319.595 474.781 319.15 474.781 318.63V313.605C474.781 313.475 474.846 313.41 474.976 313.41H475.651C475.781 313.41 475.846 313.475 475.846 313.605V318.315C475.846 318.885 476.006 319.34 476.326 319.68C476.646 320.01 477.081 320.175 477.631 320.175C478.201 320.175 478.651 320.005 478.981 319.665C479.321 319.325 479.491 318.875 479.491 318.315V313.605ZM486.093 313.305C486.883 313.305 487.513 313.54 487.983 314.01C488.463 314.48 488.703 315.11 488.703 315.9V320.805C488.703 320.935 488.638 321 488.508 321H487.833C487.703 321 487.638 320.935 487.638 320.805V316.11C487.638 315.55 487.473 315.1 487.143 314.76C486.813 314.41 486.383 314.235 485.853 314.235C485.343 314.235 484.918 314.38 484.578 314.67C484.248 314.96 484.058 315.34 484.008 315.81V320.805C484.008 320.935 483.943 321 483.813 321H483.138C483.008 321 482.943 320.935 482.943 320.805V313.605C482.943 313.475 483.008 313.41 483.138 313.41H483.813C483.943 313.41 484.008 313.475 484.008 313.605V314.16C484.008 314.19 484.018 314.215 484.038 314.235C484.058 314.245 484.073 314.235 484.083 314.205C484.523 313.605 485.193 313.305 486.093 313.305Z" fill="#151515"/>
<path d="M546.855 321.12C546.175 321.12 545.575 320.99 545.055 320.73C544.545 320.47 544.145 320.105 543.855 319.635C543.575 319.155 543.435 318.605 543.435 317.985V317.295C543.435 317.165 543.5 317.1 543.63 317.1H544.305C544.435 317.1 544.5 317.165 544.5 317.295V317.985C544.5 318.645 544.715 319.18 545.145 319.59C545.585 319.99 546.155 320.19 546.855 320.19C547.565 320.19 548.135 319.99 548.565 319.59C549.005 319.18 549.225 318.645 549.225 317.985V310.695C549.225 310.565 549.29 310.5 549.42 310.5H550.095C550.225 310.5 550.29 310.565 550.29 310.695V317.985C550.29 318.605 550.145 319.155 549.855 319.635C549.575 320.105 549.175 320.47 548.655 320.73C548.135 320.99 547.535 321.12 546.855 321.12ZM557.491 313.605C557.491 313.475 557.556 313.41 557.686 313.41H558.361C558.491 313.41 558.556 313.475 558.556 313.605V320.805C558.556 320.935 558.491 321 558.361 321H557.686C557.556 321 557.491 320.935 557.491 320.805V320.235C557.491 320.205 557.481 320.185 557.461 320.175C557.441 320.165 557.421 320.175 557.401 320.205C556.971 320.805 556.311 321.105 555.421 321.105C554.941 321.105 554.496 321.01 554.086 320.82C553.686 320.62 553.366 320.335 553.126 319.965C552.896 319.595 552.781 319.15 552.781 318.63V313.605C552.781 313.475 552.846 313.41 552.976 313.41H553.651C553.781 313.41 553.846 313.475 553.846 313.605V318.315C553.846 318.885 554.006 319.34 554.326 319.68C554.646 320.01 555.081 320.175 555.631 320.175C556.201 320.175 556.651 320.005 556.981 319.665C557.321 319.325 557.491 318.875 557.491 318.315V313.605ZM561.138 321C561.008 321 560.943 320.935 560.943 320.805V310.695C560.943 310.565 561.008 310.5 561.138 310.5H561.813C561.943 310.5 562.008 310.565 562.008 310.695V320.805C562.008 320.935 561.943 321 561.813 321H561.138Z" fill="#151515"/>
<path d="M624.665 321C624.525 321 624.43 320.93 624.38 320.79L623.96 319.395C623.95 319.345 623.92 319.32 623.87 319.32H620.195C620.145 319.32 620.115 319.345 620.105 319.395L619.685 320.79C619.635 320.93 619.54 321 619.4 321H617.66C617.57 321 617.505 320.975 617.465 320.925C617.425 320.865 617.42 320.795 617.45 320.715L620.645 310.71C620.695 310.57 620.79 310.5 620.93 310.5H623.135C623.275 310.5 623.37 310.57 623.42 310.71L626.615 320.715C626.625 320.735 626.63 320.765 626.63 320.805C626.63 320.865 626.61 320.915 626.57 320.955C626.53 320.985 626.475 321 626.405 321H624.665ZM620.63 317.58C620.62 317.65 620.645 317.685 620.705 317.685H623.36C623.42 317.685 623.445 317.65 623.435 317.58L622.085 313.005C622.075 312.965 622.055 312.945 622.025 312.945C622.005 312.945 621.985 312.965 621.965 313.005L620.63 317.58ZM632.343 313.545C632.343 313.375 632.428 313.29 632.598 313.29H634.203C634.373 313.29 634.458 313.375 634.458 313.545V320.745C634.458 320.915 634.373 321 634.203 321H632.598C632.428 321 632.343 320.915 632.343 320.745V320.34C632.343 320.3 632.328 320.28 632.298 320.28C632.278 320.27 632.258 320.28 632.238 320.31C631.848 320.84 631.233 321.105 630.393 321.105C629.633 321.105 629.008 320.875 628.518 320.415C628.028 319.955 627.783 319.31 627.783 318.48V313.545C627.783 313.375 627.868 313.29 628.038 313.29H629.628C629.798 313.29 629.883 313.375 629.883 313.545V317.955C629.883 318.355 629.988 318.68 630.198 318.93C630.418 319.18 630.718 319.305 631.098 319.305C631.438 319.305 631.718 319.205 631.938 319.005C632.158 318.795 632.293 318.525 632.343 318.195V313.545ZM640.727 313.545C640.727 313.375 640.812 313.29 640.982 313.29H642.587C642.757 313.29 642.842 313.375 642.842 313.545V320.31C642.842 321.62 642.467 322.555 641.717 323.115C640.967 323.675 640.002 323.955 638.822 323.955C638.492 323.955 638.117 323.93 637.697 323.88C637.547 323.87 637.472 323.78 637.472 323.61L637.532 322.215C637.532 322.135 637.557 322.07 637.607 322.02C637.667 321.98 637.737 321.97 637.817 321.99C638.187 322.04 638.492 322.065 638.732 322.065C639.372 322.065 639.862 321.925 640.202 321.645C640.552 321.365 640.727 320.915 640.727 320.295C640.727 320.265 640.717 320.25 640.697 320.25C640.677 320.24 640.652 320.25 640.622 320.28C640.252 320.68 639.702 320.88 638.972 320.88C638.322 320.88 637.722 320.725 637.172 320.415C636.632 320.095 636.247 319.585 636.017 318.885C635.867 318.425 635.792 317.83 635.792 317.1C635.792 316.32 635.882 315.685 636.062 315.195C636.272 314.585 636.627 314.095 637.127 313.725C637.627 313.355 638.207 313.17 638.867 313.17C639.617 313.17 640.202 313.395 640.622 313.845C640.652 313.875 640.677 313.885 640.697 313.875C640.717 313.865 640.727 313.84 640.727 313.8V313.545ZM640.607 318.315C640.687 318.015 640.727 317.605 640.727 317.085C640.727 316.775 640.717 316.535 640.697 316.365C640.677 316.195 640.642 316.035 640.592 315.885C640.502 315.615 640.352 315.4 640.142 315.24C639.932 315.07 639.672 314.985 639.362 314.985C639.062 314.985 638.807 315.07 638.597 315.24C638.387 315.4 638.232 315.615 638.132 315.885C637.992 316.185 637.922 316.59 637.922 317.1C637.922 317.66 637.982 318.06 638.102 318.3C638.192 318.57 638.347 318.79 638.567 318.96C638.797 319.12 639.067 319.2 639.377 319.2C639.697 319.2 639.962 319.12 640.172 318.96C640.382 318.79 640.527 318.575 640.607 318.315Z" fill="#151515"/>
<path d="M701.47 321.12C700.74 321.12 700.1 321.005 699.55 320.775C699.01 320.545 698.59 320.22 698.29 319.8C698 319.37 697.855 318.875 697.855 318.315V317.895C697.855 317.765 697.92 317.7 698.05 317.7H698.695C698.825 317.7 698.89 317.765 698.89 317.895V318.255C698.89 318.825 699.13 319.29 699.61 319.65C700.09 320.01 700.735 320.19 701.545 320.19C702.315 320.19 702.9 320.03 703.3 319.71C703.7 319.38 703.9 318.945 703.9 318.405C703.9 318.055 703.805 317.755 703.615 317.505C703.435 317.255 703.155 317.02 702.775 316.8C702.395 316.58 701.85 316.325 701.14 316.035C700.39 315.735 699.805 315.475 699.385 315.255C698.975 315.025 698.64 314.735 698.38 314.385C698.13 314.025 698.005 313.575 698.005 313.035C698.005 312.195 698.295 311.545 698.875 311.085C699.465 310.615 700.275 310.38 701.305 310.38C702.405 310.38 703.275 310.64 703.915 311.16C704.555 311.68 704.875 312.37 704.875 313.23V313.515C704.875 313.645 704.81 313.71 704.68 313.71H704.02C703.89 313.71 703.825 313.645 703.825 313.515V313.29C703.825 312.71 703.6 312.235 703.15 311.865C702.7 311.495 702.065 311.31 701.245 311.31C700.535 311.31 699.99 311.455 699.61 311.745C699.24 312.035 699.055 312.455 699.055 313.005C699.055 313.365 699.145 313.665 699.325 313.905C699.515 314.135 699.78 314.34 700.12 314.52C700.47 314.69 701 314.915 701.71 315.195C702.44 315.495 703.03 315.775 703.48 316.035C703.93 316.295 704.29 316.615 704.56 316.995C704.83 317.365 704.965 317.82 704.965 318.36C704.965 319.19 704.655 319.86 704.035 320.37C703.425 320.87 702.57 321.12 701.47 321.12ZM709.944 320.205C710.394 320.195 710.779 320.095 711.099 319.905C711.429 319.705 711.684 319.43 711.864 319.08C711.884 319.03 711.919 318.995 711.969 318.975C712.019 318.955 712.069 318.96 712.119 318.99L712.554 319.23C712.674 319.3 712.704 319.385 712.644 319.485C712.404 319.985 712.044 320.385 711.564 320.685C711.084 320.975 710.514 321.12 709.854 321.12C709.154 321.12 708.564 320.955 708.084 320.625C707.604 320.295 707.259 319.835 707.049 319.245C706.859 318.745 706.764 318.055 706.764 317.175C706.764 316.745 706.769 316.405 706.779 316.155C706.799 315.895 706.839 315.655 706.899 315.435C707.069 314.785 707.409 314.265 707.919 313.875C708.439 313.485 709.064 313.29 709.794 313.29C710.664 313.29 711.344 313.515 711.834 313.965C712.334 314.415 712.654 315.05 712.794 315.87C712.854 316.19 712.884 316.69 712.884 317.37C712.884 317.5 712.819 317.565 712.689 317.565H707.889C707.839 317.565 707.814 317.59 707.814 317.64C707.814 318.14 707.844 318.505 707.904 318.735C708.014 319.185 708.244 319.545 708.594 319.815C708.954 320.075 709.404 320.205 709.944 320.205ZM709.794 314.22C709.294 314.22 708.884 314.35 708.564 314.61C708.244 314.86 708.034 315.2 707.934 315.63C707.874 315.83 707.834 316.17 707.814 316.65C707.814 316.7 707.839 316.725 707.889 316.725H711.744C711.794 316.725 711.819 316.7 711.819 316.65C711.799 316.21 711.769 315.89 711.729 315.69C711.619 315.24 711.394 314.885 711.054 314.625C710.724 314.355 710.304 314.22 709.794 314.22ZM720.897 315.3C721.037 315.75 721.107 316.385 721.107 317.205C721.107 318.035 721.047 318.655 720.927 319.065C720.747 319.705 720.417 320.21 719.937 320.58C719.457 320.94 718.862 321.12 718.152 321.12C717.762 321.12 717.402 321.045 717.072 320.895C716.742 320.735 716.467 320.51 716.247 320.22C716.227 320.19 716.207 320.18 716.187 320.19C716.167 320.2 716.157 320.22 716.157 320.25V323.715C716.157 323.845 716.092 323.91 715.962 323.91H715.287C715.157 323.91 715.092 323.845 715.092 323.715V313.605C715.092 313.475 715.157 313.41 715.287 313.41H715.962C716.092 313.41 716.157 313.475 716.157 313.605V314.175C716.157 314.205 716.167 314.225 716.187 314.235C716.207 314.235 716.227 314.225 716.247 314.205C716.467 313.915 716.737 313.69 717.057 313.53C717.387 313.37 717.752 313.29 718.152 313.29C718.852 313.29 719.437 313.47 719.907 313.83C720.387 314.19 720.717 314.68 720.897 315.3ZM719.697 319.095C719.817 318.875 719.902 318.63 719.952 318.36C720.012 318.08 720.042 317.695 720.042 317.205C720.042 316.735 720.022 316.37 719.982 316.11C719.942 315.84 719.872 315.6 719.772 315.39C719.652 315.03 719.437 314.745 719.127 314.535C718.827 314.325 718.467 314.22 718.047 314.22C717.647 314.22 717.312 314.325 717.042 314.535C716.772 314.745 716.572 315.025 716.442 315.375C716.352 315.575 716.287 315.81 716.247 316.08C716.207 316.35 716.187 316.725 716.187 317.205C716.187 317.685 716.207 318.065 716.247 318.345C716.287 318.615 716.357 318.855 716.457 319.065C716.577 319.405 716.772 319.68 717.042 319.89C717.322 320.09 717.652 320.19 718.032 320.19C718.432 320.19 718.777 320.09 719.067 319.89C719.357 319.69 719.567 319.425 719.697 319.095Z" fill="#151515"/>
<path d="M780.65 321.12C779.94 321.12 779.315 320.975 778.775 320.685C778.235 320.395 777.815 319.99 777.515 319.47C777.225 318.94 777.08 318.33 777.08 317.64V313.86C777.08 313.17 777.225 312.565 777.515 312.045C777.815 311.515 778.235 311.105 778.775 310.815C779.315 310.525 779.94 310.38 780.65 310.38C781.36 310.38 781.985 310.525 782.525 310.815C783.075 311.105 783.495 311.515 783.785 312.045C784.085 312.565 784.235 313.17 784.235 313.86V317.64C784.235 318.33 784.085 318.94 783.785 319.47C783.495 319.99 783.075 320.395 782.525 320.685C781.985 320.975 781.36 321.12 780.65 321.12ZM780.65 320.205C781.41 320.205 782.02 319.975 782.48 319.515C782.94 319.055 783.17 318.445 783.17 317.685V313.845C783.17 313.085 782.94 312.475 782.48 312.015C782.02 311.545 781.41 311.31 780.65 311.31C779.9 311.31 779.295 311.545 778.835 312.015C778.375 312.475 778.145 313.085 778.145 313.845V317.685C778.145 318.445 778.375 319.055 778.835 319.515C779.295 319.975 779.9 320.205 780.65 320.205ZM789.396 321.12C788.676 321.12 788.056 320.935 787.536 320.565C787.026 320.185 786.676 319.675 786.486 319.035C786.356 318.595 786.291 317.975 786.291 317.175C786.291 316.455 786.356 315.845 786.486 315.345C786.666 314.725 787.016 314.23 787.536 313.86C788.056 313.48 788.676 313.29 789.396 313.29C790.126 313.29 790.756 313.475 791.286 313.845C791.826 314.215 792.176 314.675 792.336 315.225C792.376 315.365 792.406 315.5 792.426 315.63V315.66C792.426 315.77 792.366 315.835 792.246 315.855L791.586 315.93H791.541C791.451 315.93 791.391 315.875 791.361 315.765C791.361 315.725 791.351 315.665 791.331 315.585C791.241 315.205 791.021 314.885 790.671 314.625C790.321 314.355 789.896 314.22 789.396 314.22C788.896 314.22 788.476 314.355 788.136 314.625C787.806 314.885 787.591 315.235 787.491 315.675C787.401 316.055 787.356 316.56 787.356 317.19C787.356 317.85 787.401 318.36 787.491 318.72C787.591 319.17 787.806 319.53 788.136 319.8C788.476 320.06 788.896 320.19 789.396 320.19C789.886 320.19 790.306 320.065 790.656 319.815C791.016 319.555 791.236 319.23 791.316 318.84C791.326 318.82 791.331 318.795 791.331 318.765L791.346 318.75C791.356 318.62 791.431 318.565 791.571 318.585L792.216 318.69C792.346 318.71 792.406 318.785 792.396 318.915L792.336 319.17C792.186 319.75 791.841 320.22 791.301 320.58C790.761 320.94 790.126 321.12 789.396 321.12ZM797.729 314.1C797.729 314.23 797.664 314.295 797.534 314.295H795.899C795.849 314.295 795.824 314.32 795.824 314.37V318.75C795.824 319.23 795.929 319.57 796.139 319.77C796.359 319.96 796.699 320.055 797.159 320.055H797.489C797.619 320.055 797.684 320.12 797.684 320.25V320.775C797.684 320.905 797.619 320.975 797.489 320.985H796.979C796.259 320.985 795.714 320.85 795.344 320.58C794.974 320.31 794.789 319.81 794.789 319.08V314.37C794.789 314.32 794.764 314.295 794.714 314.295H793.859C793.729 314.295 793.664 314.23 793.664 314.1V313.605C793.664 313.475 793.729 313.41 793.859 313.41H794.714C794.764 313.41 794.789 313.385 794.789 313.335V311.655C794.789 311.525 794.854 311.46 794.984 311.46H795.629C795.759 311.46 795.824 311.525 795.824 311.655V313.335C795.824 313.385 795.849 313.41 795.899 313.41H797.534C797.664 313.41 797.729 313.475 797.729 313.605V314.1Z" fill="#151515"/>
<path d="M854.605 321C854.475 321 854.41 320.935 854.41 320.805V310.695C854.41 310.565 854.475 310.5 854.605 310.5H855.28C855.37 310.5 855.445 310.545 855.505 310.635L860.545 318.795C860.565 318.825 860.585 318.84 860.605 318.84C860.625 318.83 860.635 318.805 860.635 318.765V310.695C860.635 310.565 860.7 310.5 860.83 310.5H861.505C861.635 310.5 861.7 310.565 861.7 310.695V320.805C861.7 320.935 861.635 321 861.505 321H860.83C860.74 321 860.665 320.955 860.605 320.865L855.55 312.675C855.53 312.645 855.51 312.635 855.49 312.645C855.47 312.645 855.46 312.665 855.46 312.705L855.475 320.805C855.475 320.935 855.41 321 855.28 321H854.605ZM867.203 321.12C866.473 321.12 865.848 320.935 865.328 320.565C864.818 320.195 864.463 319.685 864.263 319.035C864.123 318.575 864.053 317.96 864.053 317.19C864.053 316.43 864.118 315.82 864.248 315.36C864.448 314.72 864.803 314.215 865.313 313.845C865.833 313.475 866.463 313.29 867.203 313.29C867.923 313.29 868.538 313.475 869.048 313.845C869.568 314.215 869.923 314.715 870.113 315.345C870.253 315.825 870.323 316.44 870.323 317.19C870.323 317.96 870.253 318.575 870.113 319.035C869.913 319.685 869.553 320.195 869.033 320.565C868.523 320.935 867.913 321.12 867.203 321.12ZM867.203 320.19C867.683 320.19 868.093 320.06 868.433 319.8C868.773 319.53 869.003 319.17 869.123 318.72C869.203 318.4 869.243 317.895 869.243 317.205C869.243 316.485 869.203 315.98 869.123 315.69C869.013 315.24 868.783 314.885 868.433 314.625C868.093 314.355 867.673 314.22 867.173 314.22C866.693 314.22 866.283 314.355 865.943 314.625C865.603 314.885 865.373 315.24 865.253 315.69C865.173 315.98 865.133 316.485 865.133 317.205C865.133 317.925 865.173 318.43 865.253 318.72C865.363 319.17 865.588 319.53 865.928 319.8C866.278 320.06 866.703 320.19 867.203 320.19ZM874.153 321C874.033 321 873.958 320.945 873.928 320.835L871.498 313.635C871.488 313.615 871.483 313.59 871.483 313.56C871.483 313.52 871.498 313.485 871.528 313.455C871.568 313.425 871.613 313.41 871.663 313.41H872.428C872.538 313.41 872.608 313.465 872.638 313.575L874.513 319.41C874.523 319.45 874.538 319.47 874.558 319.47C874.578 319.47 874.593 319.45 874.603 319.41L876.478 313.575C876.508 313.465 876.578 313.41 876.688 313.41L877.453 313.425C877.523 313.425 877.568 313.445 877.588 313.485C877.618 313.525 877.623 313.58 877.603 313.65L875.188 320.835C875.158 320.945 875.083 321 874.963 321H874.153Z" fill="#151515"/>
<path d="M934.605 322C934.475 322 934.41 321.935 934.41 321.805V311.695C934.41 311.565 934.475 311.5 934.605 311.5H938.1C939.09 311.5 939.875 311.76 940.455 312.28C941.045 312.8 941.34 313.505 941.34 314.395V319.105C941.34 319.995 941.045 320.7 940.455 321.22C939.875 321.74 939.09 322 938.1 322H934.605ZM935.475 320.995C935.475 321.045 935.5 321.07 935.55 321.07H938.145C938.795 321.07 939.31 320.88 939.69 320.5C940.08 320.12 940.275 319.61 940.275 318.97V314.545C940.275 313.895 940.085 313.38 939.705 313C939.325 312.62 938.805 312.43 938.145 312.43H935.55C935.5 312.43 935.475 312.455 935.475 312.505V320.995ZM946.427 321.205C946.877 321.195 947.262 321.095 947.582 320.905C947.912 320.705 948.167 320.43 948.347 320.08C948.367 320.03 948.402 319.995 948.452 319.975C948.502 319.955 948.552 319.96 948.602 319.99L949.037 320.23C949.157 320.3 949.187 320.385 949.127 320.485C948.887 320.985 948.527 321.385 948.047 321.685C947.567 321.975 946.997 322.12 946.337 322.12C945.637 322.12 945.047 321.955 944.567 321.625C944.087 321.295 943.742 320.835 943.532 320.245C943.342 319.745 943.247 319.055 943.247 318.175C943.247 317.745 943.252 317.405 943.262 317.155C943.282 316.895 943.322 316.655 943.382 316.435C943.552 315.785 943.892 315.265 944.402 314.875C944.922 314.485 945.547 314.29 946.277 314.29C947.147 314.29 947.827 314.515 948.317 314.965C948.817 315.415 949.137 316.05 949.277 316.87C949.337 317.19 949.367 317.69 949.367 318.37C949.367 318.5 949.302 318.565 949.172 318.565H944.372C944.322 318.565 944.297 318.59 944.297 318.64C944.297 319.14 944.327 319.505 944.387 319.735C944.497 320.185 944.727 320.545 945.077 320.815C945.437 321.075 945.887 321.205 946.427 321.205ZM946.277 315.22C945.777 315.22 945.367 315.35 945.047 315.61C944.727 315.86 944.517 316.2 944.417 316.63C944.357 316.83 944.317 317.17 944.297 317.65C944.297 317.7 944.322 317.725 944.372 317.725H948.227C948.277 317.725 948.302 317.7 948.302 317.65C948.282 317.21 948.252 316.89 948.212 316.69C948.102 316.24 947.877 315.885 947.537 315.625C947.207 315.355 946.787 315.22 946.277 315.22ZM954.35 322.12C953.63 322.12 953.01 321.935 952.49 321.565C951.98 321.185 951.63 320.675 951.44 320.035C951.31 319.595 951.245 318.975 951.245 318.175C951.245 317.455 951.31 316.845 951.44 316.345C951.62 315.725 951.97 315.23 952.49 314.86C953.01 314.48 953.63 314.29 954.35 314.29C955.08 314.29 955.71 314.475 956.24 314.845C956.78 315.215 957.13 315.675 957.29 316.225C957.33 316.365 957.36 316.5 957.38 316.63V316.66C957.38 316.77 957.32 316.835 957.2 316.855L956.54 316.93H956.495C956.405 316.93 956.345 316.875 956.315 316.765C956.315 316.725 956.305 316.665 956.285 316.585C956.195 316.205 955.975 315.885 955.625 315.625C955.275 315.355 954.85 315.22 954.35 315.22C953.85 315.22 953.43 315.355 953.09 315.625C952.76 315.885 952.545 316.235 952.445 316.675C952.355 317.055 952.31 317.56 952.31 318.19C952.31 318.85 952.355 319.36 952.445 319.72C952.545 320.17 952.76 320.53 953.09 320.8C953.43 321.06 953.85 321.19 954.35 321.19C954.84 321.19 955.26 321.065 955.61 320.815C955.97 320.555 956.19 320.23 956.27 319.84C956.28 319.82 956.285 319.795 956.285 319.765L956.3 319.75C956.31 319.62 956.385 319.565 956.525 319.585L957.17 319.69C957.3 319.71 957.36 319.785 957.35 319.915L957.29 320.17C957.14 320.75 956.795 321.22 956.255 321.58C955.715 321.94 955.08 322.12 954.35 322.12Z" fill="#151515"/>
<path d="M29.215 271.15C28.255 271.15 27.49 270.875 26.92 270.325C26.35 269.775 26.065 269.04 26.065 268.12V263.38C26.065 262.46 26.35 261.73 26.92 261.19C27.49 260.64 28.255 260.365 29.215 260.365C30.185 260.365 30.96 260.64 31.54 261.19C32.12 261.74 32.41 262.47 32.41 263.38V268.12C32.41 269.04 32.12 269.775 31.54 270.325C30.96 270.875 30.185 271.15 29.215 271.15ZM29.215 270.22C29.855 270.22 30.37 270.035 30.76 269.665C31.15 269.295 31.345 268.8 31.345 268.18V263.335C31.345 262.725 31.15 262.235 30.76 261.865C30.38 261.495 29.865 261.31 29.215 261.31C28.585 261.31 28.08 261.495 27.7 261.865C27.32 262.235 27.13 262.725 27.13 263.335V268.18C27.13 268.8 27.32 269.295 27.7 269.665C28.08 270.035 28.585 270.22 29.215 270.22Z" fill="#151515"/>
<line x1="66" y1="264.5" x2="956" y2="264.5" stroke="#DBDBDB" stroke-dasharray="2 2"/>
<path d="M30.3394 220H28.9771V210.969L26.2451 211.973V210.742L30.127 209.285H30.3394V220ZM40.9961 215.452C40.9961 217.039 40.7251 218.218 40.1831 218.989C39.6411 219.761 38.7939 220.146 37.6416 220.146C36.5039 220.146 35.6616 219.771 35.1147 219.019C34.5679 218.262 34.2847 217.134 34.2651 215.635V213.826C34.2651 212.258 34.5361 211.094 35.0781 210.332C35.6201 209.57 36.4697 209.189 37.627 209.189C38.7744 209.189 39.6191 209.558 40.1611 210.295C40.7031 211.028 40.9814 212.161 40.9961 213.694V215.452ZM39.6411 213.599C39.6411 212.451 39.48 211.616 39.1577 211.094C38.8354 210.566 38.3252 210.303 37.627 210.303C36.9336 210.303 36.4282 210.564 36.1108 211.086C35.7935 211.609 35.6299 212.412 35.6201 213.496V215.664C35.6201 216.816 35.7861 217.668 36.1182 218.22C36.4551 218.767 36.9629 219.041 37.6416 219.041C38.3105 219.041 38.8062 218.782 39.1284 218.264C39.4556 217.747 39.6265 216.931 39.6411 215.818V213.599ZM45.7935 215.042L44.4897 216.396V220H43.0835V209.336H44.4897V214.609L49.2285 209.336H50.9277L46.731 214.045L51.2573 220H49.5728L45.7935 215.042Z" fill="#151515"/>
<line x1="66" y1="214.5" x2="956" y2="214.5" stroke="#DBDBDB" stroke-dasharray="2 2"/>
<line x1="63" y1="164.5" x2="956" y2="164.5" stroke="#DBDBDB" stroke-dasharray="2 2"/>
<path d="M32.8735 170H25.8862V169.026L29.5776 164.924C30.1245 164.304 30.5005 163.801 30.7056 163.416C30.9155 163.025 31.0205 162.622 31.0205 162.207C31.0205 161.65 30.8521 161.194 30.5151 160.837C30.1782 160.481 29.729 160.303 29.1675 160.303C28.4937 160.303 27.9688 160.496 27.5928 160.881C27.2217 161.262 27.0361 161.794 27.0361 162.478H25.6812C25.6812 161.497 25.9961 160.703 26.626 160.098C27.2607 159.492 28.1079 159.189 29.1675 159.189C30.1587 159.189 30.9424 159.451 31.5186 159.973C32.0947 160.491 32.3828 161.182 32.3828 162.046C32.3828 163.096 31.7139 164.346 30.376 165.796L27.5195 168.894H32.8735V170ZM40.9961 165.452C40.9961 167.039 40.7251 168.218 40.1831 168.989C39.6411 169.761 38.7939 170.146 37.6416 170.146C36.5039 170.146 35.6616 169.771 35.1147 169.019C34.5679 168.262 34.2847 167.134 34.2651 165.635V163.826C34.2651 162.258 34.5361 161.094 35.0781 160.332C35.6201 159.57 36.4697 159.189 37.627 159.189C38.7744 159.189 39.6191 159.558 40.1611 160.295C40.7031 161.028 40.9814 162.161 40.9961 163.694V165.452ZM39.6411 163.599C39.6411 162.451 39.48 161.616 39.1577 161.094C38.8354 160.566 38.3252 160.303 37.627 160.303C36.9336 160.303 36.4282 160.564 36.1108 161.086C35.7935 161.609 35.6299 162.412 35.6201 163.496V165.664C35.6201 166.816 35.7861 167.668 36.1182 168.22C36.4551 168.767 36.9629 169.041 37.6416 169.041C38.3105 169.041 38.8062 168.782 39.1284 168.264C39.4556 167.747 39.6265 166.931 39.6411 165.818V163.599ZM45.7935 165.042L44.4897 166.396V170H43.0835V159.336H44.4897V164.609L49.2285 159.336H50.9277L46.731 164.045L51.2573 170H49.5728L45.7935 165.042Z" fill="#151515"/>
<path d="M27.8564 114.009H28.8745C29.5142 113.999 30.0171 113.831 30.3833 113.503C30.7495 113.176 30.9326 112.734 30.9326 112.178C30.9326 110.928 30.3101 110.303 29.0649 110.303C28.479 110.303 28.0103 110.471 27.6587 110.808C27.312 111.14 27.1387 111.582 27.1387 112.134H25.7837C25.7837 111.289 26.0913 110.588 26.7065 110.032C27.3267 109.47 28.1128 109.189 29.0649 109.189C30.0708 109.189 30.8594 109.456 31.4307 109.988C32.002 110.52 32.2876 111.26 32.2876 112.207C32.2876 112.671 32.1362 113.12 31.8335 113.555C31.5356 113.989 31.1279 114.314 30.6104 114.529C31.1963 114.714 31.6479 115.022 31.9653 115.452C32.2876 115.881 32.4487 116.406 32.4487 117.026C32.4487 117.983 32.1362 118.743 31.5112 119.304C30.8862 119.866 30.0732 120.146 29.0723 120.146C28.0713 120.146 27.2559 119.875 26.626 119.333C26.001 118.792 25.6885 118.076 25.6885 117.188H27.0508C27.0508 117.749 27.2339 118.198 27.6001 118.535C27.9663 118.872 28.457 119.041 29.0723 119.041C29.7266 119.041 30.2271 118.87 30.5737 118.528C30.9204 118.186 31.0938 117.695 31.0938 117.056C31.0938 116.436 30.9033 115.959 30.5225 115.627C30.1416 115.295 29.5923 115.125 28.8745 115.115H27.8564V114.009ZM40.9961 115.452C40.9961 117.039 40.7251 118.218 40.1831 118.989C39.6411 119.761 38.7939 120.146 37.6416 120.146C36.5039 120.146 35.6616 119.771 35.1147 119.019C34.5679 118.262 34.2847 117.134 34.2651 115.635V113.826C34.2651 112.258 34.5361 111.094 35.0781 110.332C35.6201 109.57 36.4697 109.189 37.627 109.189C38.7744 109.189 39.6191 109.558 40.1611 110.295C40.7031 111.028 40.9814 112.161 40.9961 113.694V115.452ZM39.6411 113.599C39.6411 112.451 39.48 111.616 39.1577 111.094C38.8354 110.566 38.3252 110.303 37.627 110.303C36.9336 110.303 36.4282 110.564 36.1108 111.086C35.7935 111.609 35.6299 112.412 35.6201 113.496V115.664C35.6201 116.816 35.7861 117.668 36.1182 118.22C36.4551 118.767 36.9629 119.041 37.6416 119.041C38.3105 119.041 38.8062 118.782 39.1284 118.264C39.4556 117.747 39.6265 116.931 39.6411 115.818V113.599ZM45.7935 115.042L44.4897 116.396V120H43.0835V109.336H44.4897V114.609L49.2285 109.336H50.9277L46.731 114.045L51.2573 120H49.5728L45.7935 115.042Z" fill="#151515"/>
<line x1="60" y1="114.5" x2="956" y2="114.5" stroke="#DBDBDB" stroke-dasharray="2 2"/>
<line x1="81.5" y1="293" x2="81.5" y2="65" stroke="#DBDBDB" stroke-dasharray="2 2"/>
<line x1="393.5" y1="293" x2="393.5" y2="65" stroke="#DBDBDB" stroke-dasharray="2 2"/>
<line x1="708.5" y1="293" x2="708.5" y2="65" stroke="#DBDBDB" stroke-dasharray="2 2"/>
<line x1="158.5" y1="293" x2="158.5" y2="65" stroke="#DBDBDB" stroke-dasharray="2 2"/>
<line x1="470.5" y1="293" x2="470.5" y2="65" stroke="#DBDBDB" stroke-dasharray="2 2"/>
<line x1="785.5" y1="293" x2="785.5" y2="65" stroke="#DBDBDB" stroke-dasharray="2 2"/>
<line x1="235.5" y1="293" x2="235.5" y2="65" stroke="#DBDBDB" stroke-dasharray="2 2"/>
<line x1="547.5" y1="293" x2="547.5" y2="65" stroke="#DBDBDB" stroke-dasharray="2 2"/>
<line x1="862.5" y1="293" x2="862.5" y2="65" stroke="#DBDBDB" stroke-dasharray="2 2"/>
<line x1="315.5" y1="293" x2="315.5" y2="65" stroke="#DBDBDB" stroke-dasharray="2 2"/>
<line x1="627.5" y1="293" x2="627.5" y2="65" stroke="#DBDBDB" stroke-dasharray="2 2"/>
<line x1="942.5" y1="293" x2="942.5" y2="65" stroke="#DBDBDB" stroke-dasharray="2 2"/>
<path d="M31.6064 66.4185H33.0859V67.5244H31.6064V70H30.2441V67.5244H25.3882V66.7261L30.1636 59.3359H31.6064V66.4185ZM26.9263 66.4185H30.2441V61.189L30.083 61.4819L26.9263 66.4185ZM40.9961 65.4517C40.9961 67.0386 40.7251 68.2178 40.1831 68.9893C39.6411 69.7607 38.7939 70.1465 37.6416 70.1465C36.5039 70.1465 35.6616 69.7705 35.1147 69.0186C34.5679 68.2617 34.2847 67.1338 34.2651 65.6348V63.8257C34.2651 62.2583 34.5361 61.0938 35.0781 60.332C35.6201 59.5703 36.4697 59.1895 37.627 59.1895C38.7744 59.1895 39.6191 59.5581 40.1611 60.2954C40.7031 61.0278 40.9814 62.1606 40.9961 63.6938V65.4517ZM39.6411 63.5986C39.6411 62.4512 39.48 61.6162 39.1577 61.0938C38.8354 60.5664 38.3252 60.3027 37.627 60.3027C36.9336 60.3027 36.4282 60.564 36.1108 61.0864C35.7935 61.6089 35.6299 62.4121 35.6201 63.4961V65.6641C35.6201 66.8164 35.7861 67.6685 36.1182 68.2202C36.4551 68.7671 36.9629 69.0405 37.6416 69.0405C38.3105 69.0405 38.8062 68.7817 39.1284 68.2642C39.4556 67.7466 39.6265 66.9312 39.6411 65.8179V63.5986ZM45.7935 65.0415L44.4897 66.3965V70H43.0835V59.3359H44.4897V64.6094L49.2285 59.3359H50.9277L46.731 64.0454L51.2573 70H49.5728L45.7935 65.0415Z" fill="#151515"/>
<line x1="60" y1="64.5" x2="956" y2="64.5" stroke="#DBDBDB" stroke-dasharray="2 2"/>
<path d="M74.5 200.001C86.5335 185.166 99.5 146.001 159 173.001C218.5 200.001 204 111.501 315 154.001C426 196.501 386 95.0009 442.5 114.001C499 133.001 518.091 109.15 518.091 109.15C518.091 109.15 582.5 27.5008 717 109.15" stroke="#C7452A" stroke-width="2"/>
<g filter="url(#filter0_d)">
<circle cx="631" cy="73" r="12" fill="white"/>
</g>
<g filter="url(#filter1_d)">
<circle cx="631" cy="72.9997" r="6.85714" fill="#0184FF"/>
</g>
<defs>
<filter id="filter0_d" x="615" y="57" width="32" height="32" filterUnits="userSpaceOnUse" color-interpolation-filters="sRGB">
<feFlood flood-opacity="0" result="BackgroundImageFix"/>
<feColorMatrix in="SourceAlpha" type="matrix" values="0 0 0 0 0 0 0 0 0 0 0 0 0 0 0 0 0 0 127 0"/>
<feOffset/>
<feGaussianBlur stdDeviation="2"/>
<feColorMatrix type="matrix" values="0 0 0 0 0 0 0 0 0 0 0 0 0 0 0 0 0 0 0.25 0"/>
<feBlend mode="normal" in2="BackgroundImageFix" result="effect1_dropShadow"/>
<feBlend mode="normal" in="SourceGraphic" in2="effect1_dropShadow" result="shape"/>
</filter>
<filter id="filter1_d" x="620.143" y="62.1426" width="21.7143" height="21.7143" filterUnits="userSpaceOnUse" color-interpolation-filters="sRGB">
<feFlood flood-opacity="0" result="BackgroundImageFix"/>
<feColorMatrix in="SourceAlpha" type="matrix" values="0 0 0 0 0 0 0 0 0 0 0 0 0 0 0 0 0 0 127 0"/>
<feOffset/>
<feGaussianBlur stdDeviation="2"/>
<feColorMatrix type="matrix" values="0 0 0 0 0 0 0 0 0 0 0 0 0 0 0 0 0 0 0.25 0"/>
<feBlend mode="normal" in2="BackgroundImageFix" result="effect1_dropShadow"/>
<feBlend mode="normal" in="SourceGraphic" in2="effect1_dropShadow" result="shape"/>
</filter>
</defs>
</svg>
