<svg width="123" height="31" viewBox="0 0 123 31" fill="none" xmlns="http://www.w3.org/2000/svg">
<path d="M6.2792 27.1706C10.2872 27.1706 12.2244 25.1221 12.2244 22.4055C12.2244 16.8611 3.69627 18.4421 3.69627 16.0818C3.69627 15.1911 4.45333 14.5899 5.8116 14.5899C7.32574 14.5899 8.92894 15.1021 10.1313 16.2154L11.8904 13.8997C10.4208 12.5414 8.46134 11.8289 6.10107 11.8289C2.6052 11.8289 0.4676 13.8774 0.4676 16.349C0.4676 21.9379 9.018 20.1343 9.018 22.7618C9.018 23.6079 8.17187 24.4095 6.43507 24.4095C4.38653 24.4095 2.76107 23.4966 1.71453 22.4055L0 24.8103C1.38053 26.2131 3.42907 27.1706 6.2792 27.1706Z" fill="white"/>
<path d="M24.3733 26.9034V16.1486H21.5454V23.4298C21.0556 24.0533 20.1872 24.6545 19.0961 24.6545C17.8937 24.6545 17.1144 24.1646 17.1144 22.6727V16.1486H14.2865V23.7861C14.2865 25.8791 15.3998 27.1706 17.7601 27.1706C19.5192 27.1706 20.8106 26.369 21.5454 25.5451V26.9034H24.3733Z" fill="white"/>
<path d="M33.3268 27.1706C36.0878 27.1706 38.0918 25.0998 38.0918 21.5149C38.0918 17.9299 36.0878 15.8814 33.3268 15.8814C32.013 15.8814 30.8329 16.4603 30.009 17.5069V16.1486H27.1812V31.0005H30.009V25.5229C30.8774 26.6362 32.0576 27.1706 33.3268 27.1706ZM32.4361 24.6545C31.5232 24.6545 30.4766 24.0978 30.009 23.4298V19.6222C30.4766 18.9319 31.5232 18.3975 32.4361 18.3975C34.0616 18.3975 35.1526 19.6667 35.1526 21.5149C35.1526 23.3853 34.0616 24.6545 32.4361 24.6545Z" fill="white"/>
<path d="M45.2173 27.1706C46.8873 27.1706 48.5796 26.6585 49.6484 25.6787L48.4015 23.8529C47.7112 24.5209 46.442 24.9217 45.5291 24.9217C43.7032 24.9217 42.6121 23.7861 42.434 22.4278H50.4277V21.8043C50.4277 18.2862 48.2456 15.8814 45.0392 15.8814C41.766 15.8814 39.4725 18.3975 39.4725 21.5149C39.4725 24.9662 41.9441 27.1706 45.2173 27.1706ZM47.6889 20.5129H42.3895C42.5231 19.4441 43.2801 18.1303 45.0392 18.1303C46.9096 18.1303 47.6221 19.4886 47.6889 20.5129Z" fill="white"/>
<path d="M55.2982 26.9034V19.8003C55.7658 19.1101 57.0128 18.5757 57.948 18.5757C58.2597 18.5757 58.5269 18.5979 58.7273 18.6425V15.8814C57.3913 15.8814 56.0553 16.6607 55.2982 17.6182V16.1486H52.4704V26.9034H55.2982Z" fill="white"/>
<path d="M64.1014 27.1706C65.2815 27.1706 66.0386 26.8589 66.4617 26.4803L65.8605 24.3427C65.7046 24.4986 65.3038 24.6545 64.8807 24.6545C64.2573 24.6545 63.901 24.1423 63.901 23.4743V18.6202H66.0831V16.1486H63.901V13.2094H61.0509V16.1486H59.2695V18.6202H61.0509V24.2314C61.0509 26.1463 62.1197 27.1706 64.1014 27.1706Z" fill="white"/>
<path d="M73.0724 27.1706C74.7424 27.1706 76.4347 26.6585 77.5035 25.6787L76.2566 23.8529C75.5663 24.5209 74.2971 24.9217 73.3842 24.9217C71.5583 24.9217 70.4672 23.7861 70.2891 22.4278H78.2828V21.8043C78.2828 18.2862 76.1007 15.8814 72.8943 15.8814C69.6211 15.8814 67.3276 18.3975 67.3276 21.5149C67.3276 24.9662 69.7992 27.1706 73.0724 27.1706ZM75.544 20.5129H70.2446C70.3782 19.4441 71.1352 18.1303 72.8943 18.1303C74.7647 18.1303 75.4772 19.4886 75.544 20.5129Z" fill="white"/>
<path d="M86.6 27.1693C84.93 27.1693 83.2378 26.6572 82.169 25.6775L83.4159 23.8516C84.1062 24.5196 85.3754 24.9204 86.2883 24.9204C88.1142 24.9204 89.2053 23.7848 89.3834 22.4265H81.3896V21.8031C81.3896 18.2849 83.5718 15.8801 86.7782 15.8801C90.0514 15.8801 92.3449 18.3963 92.3449 21.5136C92.3449 24.9649 89.8733 27.1693 86.6 27.1693ZM84.1284 20.5116H89.4279C89.2943 19.4428 88.5373 18.1291 86.7782 18.1291C84.9078 18.1291 84.1952 19.4873 84.1284 20.5116Z" fill="white"/>
<circle r="4.7166" transform="matrix(0.300027 -0.953931 -0.953931 -0.300027 102.864 5.91445)" fill="#C7452A"/>
<circle r="3.66846" transform="matrix(0.300027 -0.953931 -0.953931 -0.300027 103.404 18.1678)" fill="#1AAAAD"/>
<circle r="5.76473" transform="matrix(0.300027 -0.953931 -0.953931 -0.300027 115.234 12.0011)" fill="#FFC62E"/>
</svg>
