<svg width="214" height="62" viewBox="0 0 214 62" fill="none" xmlns="http://www.w3.org/2000/svg">
<g clip-path="url(#clip0)">
<path d="M0.844788 45.3447C3.50571 48.0079 7.3915 49.8256 12.7978 49.8256C20.4004 49.8256 24.0751 45.9365 24.0751 40.7793C24.0751 34.5229 18.1619 33.1279 13.5158 32.0711C10.2636 31.3102 7.89834 30.7183 7.89834 28.8161C7.89834 27.1252 9.33439 25.9415 12.0376 25.9415C14.7829 25.9415 17.824 26.9138 20.1048 29.0274L23.4415 24.6311C20.6539 22.0524 16.937 20.6997 12.4599 20.6997C5.82874 20.6997 1.774 24.5043 1.774 29.1965C1.774 35.4952 7.68716 36.7633 12.291 37.8202C15.5432 38.5811 17.9929 39.2997 17.9929 41.4133C17.9929 43.0197 16.3879 44.5838 13.0935 44.5838C9.20768 44.5838 6.12439 42.8506 4.13926 40.7793L0.844788 45.3447ZM41.7558 49.3183H47.1199V28.9006H41.7558V42.7238C40.8266 43.9074 39.1794 45.0488 37.1098 45.0488C34.829 45.0488 33.3507 44.1188 33.3507 41.2865V28.9006H27.9866V43.4002C27.9866 47.3738 30.0984 49.8256 34.5756 49.8256C37.9123 49.8256 40.362 48.3038 41.7558 46.7397V49.3183ZM57.81 57.0965V46.6974C59.4573 48.8111 61.6958 49.8256 64.1033 49.8256C69.3407 49.8256 73.142 45.8943 73.142 39.0883C73.142 32.2824 69.3407 28.3933 64.1033 28.3933C61.6114 28.3933 59.3728 29.4924 57.81 31.4793V28.9006H52.446V57.0965H57.81ZM67.5668 39.0883C67.5668 42.6393 65.4971 45.0488 62.4139 45.0488C60.6821 45.0488 58.697 43.992 57.81 42.7238V35.4952C58.697 34.1847 60.6821 33.1702 62.4139 33.1702C65.4971 33.1702 67.5668 35.5797 67.5668 39.0883ZM75.8436 39.0883C75.8436 45.6406 80.5319 49.8256 86.7407 49.8256C89.9085 49.8256 93.0763 48.8956 95.1459 46.9933L92.7806 43.527C91.4713 44.7952 89.2327 45.5561 87.3321 45.5561C83.8686 45.5561 81.799 43.4002 81.4611 40.8215H96.6242V39.6379C96.6242 32.9588 92.4849 28.3933 86.4028 28.3933C80.194 28.3933 75.8436 33.1702 75.8436 39.0883ZM86.4028 32.6629C89.9507 32.6629 91.3023 35.2415 91.429 37.1861H81.3767C81.6301 35.157 83.0661 32.6629 86.4028 32.6629ZM100.499 49.3183H105.863V35.8333C106.75 34.5229 109.115 33.5506 110.889 33.5506C111.48 33.5506 111.987 33.5929 112.367 33.6774V28.4356C109.833 28.4356 107.299 29.8729 105.863 31.6906V28.9006H100.499V49.3183ZM122.561 49.8256C124.8 49.8256 126.236 49.2338 127.038 48.5152L125.898 44.457C125.602 44.7529 124.842 45.0488 124.039 45.0488C122.857 45.0488 122.181 44.0765 122.181 42.8083V33.5929H126.32V28.9006H122.181V23.3206H116.775V28.9006H113.396V33.5929H116.775V44.2456C116.775 47.8811 118.802 49.8256 122.561 49.8256ZM128.681 39.0883C128.681 45.6406 133.369 49.8256 139.578 49.8256C142.745 49.8256 145.913 48.8956 147.982 46.9933L145.617 43.527C144.308 44.7952 142.069 45.5561 140.169 45.5561C136.706 45.5561 134.636 43.4002 134.298 40.8215H149.461V39.6379C149.461 32.9588 145.322 28.3933 139.24 28.3933C133.031 28.3933 128.681 33.1702 128.681 39.0883ZM139.24 32.6629C142.787 32.6629 144.139 35.2415 144.266 37.1861H134.214C134.467 35.157 135.903 32.6629 139.24 32.6629Z" fill="#151515"/>
<path d="M174.635 39.0881C174.635 45.6403 169.947 49.8253 163.738 49.8253C160.57 49.8253 157.403 48.8953 155.333 46.9931L157.698 43.5267C159.008 44.7949 161.246 45.5558 163.147 45.5558C166.61 45.5558 168.68 43.3999 169.018 40.8212H153.855V39.6376C153.855 32.9585 157.994 28.3931 164.076 28.3931C170.285 28.3931 174.635 33.1699 174.635 39.0881ZM164.076 32.6626C160.528 32.6626 159.177 35.2412 159.05 37.1858H169.102C168.849 35.1567 167.413 32.6626 164.076 32.6626Z" fill="#151515"/>
<path d="M180.253 7.44027C181.303 4.09961 184.86 2.24323 188.198 3.29392C191.536 4.34461 193.39 7.9045 192.341 11.2452C191.291 14.5858 187.734 16.4422 184.396 15.3915C181.058 14.3408 179.203 10.7809 180.253 7.44027Z" fill="#C7452A"/>
<path d="M182.321 24.3399C183.138 21.7416 185.904 20.2978 188.5 21.115C191.096 21.9322 192.539 24.701 191.722 27.2993C190.906 29.8976 188.139 31.3414 185.543 30.5242C182.947 29.707 181.505 26.9382 182.321 24.3399Z" fill="#1AAAAD"/>
<path d="M195.525 15.2012C196.808 11.1182 201.155 8.84931 205.235 10.1335C209.314 11.4177 211.581 15.7686 210.298 19.8517C209.015 23.9347 204.668 26.2036 200.588 24.9194C196.509 23.6352 194.242 19.2843 195.525 15.2012Z" fill="#FFC62E"/>
</g>
<defs>
<clipPath id="clip0">
<rect width="214" height="62" fill="white"/>
</clipPath>
</defs>
</svg>
