<svg width="31" height="28" viewBox="0 0 31 28" fill="none" xmlns="http://www.w3.org/2000/svg">
<path d="M15.5 5.44405L14.6897 4.32357C14.1599 3.59103 13.5656 2.97258 12.9188 2.47242L12.9188 2.47238C11.6478 1.48943 10.2233 1 8.65986 1C6.54168 1 4.60729 1.84434 3.19429 3.37683L15.5 5.44405ZM15.5 5.44405L16.3103 4.32362M15.5 5.44405L16.3103 4.32362M16.3103 4.32362C16.8403 3.59083 17.4344 2.9726 18.0809 2.47243C19.3521 1.48942 20.7767 1 22.3401 1C24.4583 1 26.3925 1.84434 27.8055 3.37688C29.2054 4.8953 30 6.99616 30 9.31618C30 11.6509 29.1433 13.8326 27.1557 16.2308L27.1556 16.2308C25.3466 18.4139 22.7262 20.6511 19.5809 23.3313L19.5808 23.3314L19.553 23.3552C18.4934 24.2583 17.2893 25.2846 16.0396 26.3774L16.0391 26.3779C15.8907 26.5078 15.6993 26.58 15.5 26.58C15.3007 26.58 15.1095 26.508 14.9605 26.3775L14.9598 26.3769C13.7007 25.2761 12.4887 24.2431 11.4237 23.3354L11.4199 23.3321L11.4198 23.332M16.3103 4.32362L11.4198 23.332M11.4198 23.332C8.27411 20.6514 5.65369 18.4139 3.84461 16.2311C1.85689 13.8325 1 11.6508 1 9.31641C1 6.99619 1.79462 4.89534 3.19421 3.37692L11.4198 23.332Z" stroke="#151515" stroke-width="2"/>
</svg>
