<svg width="38" height="39" viewBox="0 0 38 39" fill="none" xmlns="http://www.w3.org/2000/svg">
<path d="M8.98634 8.76678H33.3778V4.66004H4.36479V17.1086H27.7293C28.4995 17.1086 29.2698 17.7503 29.2698 18.6486V36.4873C29.2698 37.2573 28.6279 38.0273 27.7293 38.0273H9.88497C9.11471 38.0273 8.34446 37.3856 8.34446 36.4873V26.8621C8.34446 26.0921 8.98634 25.3221 9.88497 25.3221H20.5402C20.797 25.3221 21.0537 25.5787 21.0537 25.8354V29.3005C21.0537 29.5571 20.797 29.8138 20.5402 29.8138H12.5809V33.7922H24.905V21.3437H1.54051C0.770257 21.3437 0 20.702 0 19.8036V2.22167C0 1.45166 0.641881 0.681641 1.54051 0.681641H35.817C36.5872 0.681641 37.3575 1.32332 37.3575 2.22167V11.5902C37.3575 12.3602 36.7156 13.1302 35.817 13.1302H9.24309C8.98634 13.1302 8.72958 12.8735 8.72958 12.6168L8.60121 9.40846C8.47283 9.02345 8.72958 8.76678 8.98634 8.76678Z" fill="#00BFF3"/>
</svg>
