<svg width="20" height="20" viewBox="0 0 20 20" fill="none" xmlns="http://www.w3.org/2000/svg">
<path d="M10 0C4.48562 0 0 4.48562 0 10C0 15.5144 4.48562 20 10 20C15.5144 20 20 15.5144 20 10C20 4.48562 15.5144 0 10 0ZM15.5431 7.96281L9.15632 14.3488C8.96207 14.543 8.69265 14.6545 8.41814 14.6545V15.0869L8.40885 14.6545C8.13013 14.652 7.85986 14.5354 7.66645 14.3352L4.4444 10.9966C4.04405 10.5819 4.05588 9.91978 4.47058 9.5203C4.66652 9.33111 4.92413 9.22722 5.19525 9.22722C5.48156 9.22722 5.74846 9.3404 5.94695 9.54649L8.43084 12.1208L14.0659 6.48573C14.2627 6.28894 14.5253 6.17998 14.804 6.17998C15.0828 6.17998 15.3454 6.28893 15.5422 6.48573C15.9502 6.89282 15.9502 7.55583 15.5431 7.96292L15.5431 7.96281Z" fill="#A8A8A8"/>
</svg>
