<svg width="16" height="16" viewBox="0 0 16 16" fill="none" xmlns="http://www.w3.org/2000/svg">
<path opacity="0.2" d="M8 0C3.58217 0 0 3.58182 0 7.99965C0 12.4178 3.58217 16 8 16C12.4178 16 16 12.4178 16 7.99965C16 3.58182 12.4182 0 8 0ZM9.22293 12.3679C9.22293 13.0387 8.67362 13.5824 8.00349 13.5824C7.33301 13.5824 6.78406 13.0387 6.78406 12.3679V7.05435C6.78406 6.38387 7.33301 5.84015 8.00349 5.84015C8.67362 5.84015 9.22293 6.38352 9.22293 7.05435V12.3679ZM8 4.83688C7.26003 4.83688 6.66009 4.23694 6.66009 3.49732C6.66009 2.757 7.26003 2.15775 8 2.15775C8.73962 2.15775 9.33991 2.757 9.33991 3.49732C9.33991 4.23694 8.73962 4.83688 8 4.83688Z" fill="#151515"/>
</svg>
