<svg width="169" height="42" viewBox="0 0 169 42" fill="none" xmlns="http://www.w3.org/2000/svg">
<path d="M0 21.7733L5.42001 18.6378C6.39911 20.9108 8.08922 22.4377 11.1897 22.4377C14.1736 22.4377 14.9196 21.2604 14.9196 20.1997C14.9196 18.5096 13.3461 17.8452 9.2315 16.703C5.15193 15.5607 1.15394 13.6025 1.15394 8.34565C1.14228 3.06551 5.60651 0 10.3621 0C14.873 0 18.4047 2.15635 20.4096 6.20096L15.1178 9.30144C14.1736 7.34324 12.8798 6.11937 10.3738 6.11937C8.41559 6.11937 7.42483 7.09847 7.42483 8.20578C7.42483 9.46462 8.08922 10.3272 12.367 11.621C16.5281 12.8798 21.1905 14.3251 21.1905 20.1298C21.1905 25.4216 16.9477 28.5687 10.9916 28.5687C5.22186 28.5571 1.52693 25.8179 0 21.7733Z" fill="#151515"/>
<path d="M42.6842 8.39241V28.0094H36.798V26.1677C35.7373 27.6247 33.7791 28.5572 31.1914 28.5572C27.2284 28.5572 23.8599 25.7364 23.8599 20.433V8.39241H29.7461V19.5705C29.7461 22.0065 31.273 23.1372 33.1613 23.1372C35.3177 23.1372 36.8096 21.8783 36.8096 19.0926V8.39241H42.6842Z" fill="#151515"/>
<path d="M68.1055 18.2074C68.1055 24.047 63.8744 28.5695 58.7341 28.5695C56.1115 28.5695 54.1883 27.672 52.8828 26.18V35.8661H46.9966V8.39306H52.8828V10.2347C54.1766 8.74274 56.0999 7.84523 58.7341 7.84523C63.8627 7.84523 68.1055 12.3561 68.1055 18.2074ZM62.2192 18.2074C62.2192 15.2701 60.261 13.4168 57.5569 13.4168C54.8527 13.4168 52.8828 15.2584 52.8828 18.2074C52.8828 21.1447 54.841 22.998 57.5569 22.998C60.2494 22.998 62.2192 21.1447 62.2192 18.2074Z" fill="#151515"/>
<path d="M81.3966 23.3127C83.0051 23.3127 84.3805 22.6832 85.1615 21.8207L89.8705 24.5249C87.9472 27.1941 85.0449 28.5695 81.315 28.5695C74.6012 28.5695 70.4517 24.0586 70.4517 18.2074C70.4517 12.3561 74.6828 7.84523 80.8837 7.84523C86.6068 7.84523 90.8496 12.2745 90.8496 18.2074C90.8496 19.0349 90.768 19.8159 90.6164 20.5619H76.6876C77.4336 22.6016 79.2402 23.3127 81.3966 23.3127ZM85.0099 16.1676C84.3805 13.8947 82.6205 13.0671 80.8488 13.0671C78.6108 13.0671 77.1189 14.1627 76.571 16.1676H85.0099Z" fill="#151515"/>
<path d="M105.962 14.0452C103.526 13.6489 100.064 15.269 100.064 19.1505V28.0206H94.1782V8.39202H100.064V11.8888C100.845 9.25456 103.456 8.35706 105.927 8.35706" fill="#151515"/>
<path d="M116.733 14.0459V20.9928C116.733 22.6829 118.178 22.8344 120.778 22.6829V28.0213C113.085 28.8023 110.847 26.4944 110.847 20.9928V14.0459H107.711V8.39273H110.847V4.66283L116.733 2.89113V8.39273H120.778V14.0459H116.733Z" fill="#151515"/>
<path d="M133.683 23.3127C135.291 23.3127 136.667 22.6832 137.448 21.8207L142.157 24.5249C140.233 27.1941 137.331 28.5695 133.601 28.5695C126.887 28.5695 122.738 24.0586 122.738 18.2074C122.738 12.3561 126.969 7.84523 133.17 7.84523C138.893 7.84523 143.136 12.2745 143.136 18.2074C143.136 19.0349 143.054 19.8159 142.903 20.5619H128.974C129.72 22.6016 131.526 23.3127 133.683 23.3127ZM137.296 16.1676C136.667 13.8947 134.907 13.0671 133.135 13.0671C130.897 13.0671 129.405 14.1627 128.857 16.1676H137.296Z" fill="#151515"/>
<path d="M156.401 19.7803C158.453 19.1042 159.945 17.857 160.003 15.689L146.785 20.0833C146.4 19.4306 146.074 18.7079 145.818 17.927C143.941 12.3088 146.564 6.76058 152.007 4.95391C157.893 2.99571 163.336 5.94466 165.178 11.4812C167.02 17.0295 164.502 22.6243 158.138 24.7457C154.595 25.9229 151.412 25.5383 148.743 23.6151L152.357 19.5588C153.371 20.1299 154.874 20.2931 156.401 19.7803ZM158.721 11.4812C157.567 9.75615 155.807 9.18501 153.685 9.89602C152.007 10.4555 150.597 11.7959 150.725 14.1504L158.721 11.4812Z" fill="#151515"/>
<path d="M143.532 41.5543C137.879 41.5543 132.145 40.1206 126.829 37.3348C125.687 36.7404 125.244 35.33 125.85 34.1877C126.445 33.0455 127.855 32.6142 128.997 33.2086C135.641 36.6938 143.031 37.7545 149.803 36.1809C156.447 34.6423 161.704 30.7492 164.606 25.2127C165.201 24.0704 166.611 23.6391 167.753 24.2336C168.896 24.828 169.327 26.2384 168.733 27.3807C165.189 34.1411 158.837 38.8734 150.852 40.7267C148.463 41.2745 146.003 41.5543 143.532 41.5543Z" fill="#18BDEF"/>
</svg>
