<svg width="289" height="84" viewBox="0 0 289 84" fill="none" xmlns="http://www.w3.org/2000/svg">
<path d="M21.0234 44.1836C15.2344 42.5195 11.0156 40.4805 8.36719 38.0664C5.74219 35.6289 4.42969 32.6289 4.42969 29.0664C4.42969 25.0352 6.03516 21.707 9.24609 19.082C12.4805 16.4336 16.6758 15.1094 21.832 15.1094C25.3477 15.1094 28.4766 15.7891 31.2188 17.1484C33.9844 18.5078 36.1172 20.3828 37.6172 22.7734C39.1406 25.1641 39.9023 27.7773 39.9023 30.6133H33.1172C33.1172 27.5195 32.1328 25.0938 30.1641 23.3359C28.1953 21.5547 25.418 20.6641 21.832 20.6641C18.5039 20.6641 15.9023 21.4023 14.0273 22.8789C12.1758 24.332 11.25 26.3594 11.25 28.9609C11.25 31.0469 12.1289 32.8164 13.8867 34.2695C15.668 35.6992 18.6797 37.0117 22.9219 38.207C27.1875 39.4023 30.5156 40.7266 32.9062 42.1797C35.3203 43.6094 37.1016 45.2852 38.25 47.207C39.4219 49.1289 40.0078 51.3906 40.0078 53.9922C40.0078 58.1406 38.3906 61.4688 35.1562 63.9766C31.9219 66.4609 27.5977 67.7031 22.1836 67.7031C18.668 67.7031 15.3867 67.0352 12.3398 65.6992C9.29297 64.3398 6.9375 62.4883 5.27344 60.1445C3.63281 57.8008 2.8125 55.1406 2.8125 52.1641H9.59766C9.59766 55.2578 10.7344 57.707 13.0078 59.5117C15.3047 61.293 18.3633 62.1836 22.1836 62.1836C25.7461 62.1836 28.4766 61.457 30.375 60.0039C32.2734 58.5508 33.2227 56.5703 33.2227 54.0625C33.2227 51.5547 32.3438 49.6211 30.5859 48.2617C28.8281 46.8789 25.6406 45.5195 21.0234 44.1836ZM71.1562 63.2383C68.625 66.2148 64.9102 67.7031 60.0117 67.7031C55.957 67.7031 52.8633 66.5312 50.7305 64.1875C48.6211 61.8203 47.5547 58.3281 47.5312 53.7109V28.9609H54.0352V53.5352C54.0352 59.3008 56.3789 62.1836 61.0664 62.1836C66.0352 62.1836 69.3398 60.332 70.9805 56.6289V28.9609H77.4844V67H71.2969L71.1562 63.2383ZM119.531 48.4023C119.531 54.1914 118.207 58.8555 115.559 62.3945C112.91 65.9336 109.324 67.7031 104.801 67.7031C100.184 67.7031 96.5508 66.2383 93.9023 63.3086V81.625H87.3984V28.9609H93.3398L93.6562 33.1797C96.3047 29.8984 99.9844 28.2578 104.695 28.2578C109.266 28.2578 112.875 29.9805 115.523 33.4258C118.195 36.8711 119.531 41.6641 119.531 47.8047V48.4023ZM113.027 47.6641C113.027 43.375 112.113 39.9883 110.285 37.5039C108.457 35.0195 105.949 33.7773 102.762 33.7773C98.8242 33.7773 95.8711 35.5234 93.9023 39.0156V57.1914C95.8477 60.6602 98.8242 62.3945 102.832 62.3945C105.949 62.3945 108.422 61.1641 110.25 58.7031C112.102 56.2188 113.027 52.5391 113.027 47.6641ZM143.613 67.7031C138.457 67.7031 134.262 66.0156 131.027 62.6406C127.793 59.2422 126.176 54.707 126.176 49.0352V47.8398C126.176 44.0664 126.891 40.7031 128.32 37.75C129.773 34.7734 131.789 32.4531 134.367 30.7891C136.969 29.1016 139.781 28.2578 142.805 28.2578C147.75 28.2578 151.594 29.8867 154.336 33.1445C157.078 36.4023 158.449 41.0664 158.449 47.1367V49.8438H132.68C132.773 53.5938 133.863 56.6289 135.949 58.9492C138.059 61.2461 140.73 62.3945 143.965 62.3945C146.262 62.3945 148.207 61.9258 149.801 60.9883C151.395 60.0508 152.789 58.8086 153.984 57.2617L157.957 60.3555C154.77 65.2539 149.988 67.7031 143.613 67.7031ZM142.805 33.6016C140.18 33.6016 137.977 34.5625 136.195 36.4844C134.414 38.3828 133.312 41.0547 132.891 44.5H151.945V44.0078C151.758 40.7031 150.867 38.1484 149.273 36.3438C147.68 34.5156 145.523 33.6016 142.805 33.6016ZM184.395 34.7969C183.41 34.6328 182.344 34.5508 181.195 34.5508C176.93 34.5508 174.035 36.3672 172.512 40V67H166.008V28.9609H172.336L172.441 33.3555C174.574 29.957 177.598 28.2578 181.512 28.2578C182.777 28.2578 183.738 28.4219 184.395 28.75V34.7969ZM201.551 19.6094V28.9609H208.055V36.4141H201.551V55.3984C201.551 56.8047 201.82 57.8125 202.359 58.4219C202.898 59.0312 203.93 59.3359 205.453 59.3359C206.578 59.3359 207.574 59.2539 208.441 59.0898V66.7891C206.449 67.3984 204.398 67.7031 202.289 67.7031C195.164 67.7031 191.531 64.1055 191.391 56.9102V36.4141H185.836V28.9609H191.391V19.6094H201.551ZM231.223 67.7031C225.645 67.7031 221.098 65.9922 217.582 62.5703C214.09 59.1484 212.344 54.5898 212.344 48.8945V47.9102C212.344 44.0898 213.082 40.6797 214.559 37.6797C216.035 34.6562 218.121 32.3359 220.816 30.7188C223.535 29.0781 226.629 28.2578 230.098 28.2578C235.301 28.2578 239.391 29.8984 242.367 33.1797C245.367 36.4609 246.867 41.1133 246.867 47.1367V51.2852H222.645C222.973 53.7695 223.957 55.7617 225.598 57.2617C227.262 58.7617 229.359 59.5117 231.891 59.5117C235.805 59.5117 238.863 58.0938 241.066 55.2578L246.059 60.8477C244.535 63.0039 242.473 64.6914 239.871 65.9102C237.27 67.1055 234.387 67.7031 231.223 67.7031ZM230.062 36.4844C228.047 36.4844 226.406 37.1641 225.141 38.5234C223.898 39.8828 223.102 41.8281 222.75 44.3594H236.883V43.5508C236.836 41.3008 236.227 39.5664 235.055 38.3477C233.883 37.1055 232.219 36.4844 230.062 36.4844Z" fill="white"/>
<path d="M267.59 67.7031C273.168 67.7031 277.715 65.9922 281.23 62.5703C284.723 59.1484 286.469 54.5898 286.469 48.8945V47.9102C286.469 44.0898 285.73 40.6797 284.254 37.6797C282.777 34.6562 280.691 32.3359 277.996 30.7188C275.277 29.0781 272.184 28.2578 268.715 28.2578C263.512 28.2578 259.422 29.8984 256.445 33.1797C253.445 36.4609 251.945 41.1133 251.945 47.1367V51.2852H276.168C275.84 53.7695 274.855 55.7617 273.215 57.2617C271.551 58.7617 269.453 59.5117 266.922 59.5117C263.008 59.5117 259.949 58.0938 257.746 55.2578L252.754 60.8477C254.277 63.0039 256.34 64.6914 258.941 65.9102C261.543 67.1055 264.426 67.7031 267.59 67.7031ZM268.75 36.4844C270.766 36.4844 272.406 37.1641 273.672 38.5234C274.914 39.8828 275.711 41.8281 276.062 44.3594H261.93V43.5508C261.977 41.3008 262.586 39.5664 263.758 38.3477C264.93 37.1055 266.594 36.4844 268.75 36.4844Z" fill="white"/>
</svg>
