<svg width="169" height="42" viewBox="0 0 169 42" fill="none" xmlns="http://www.w3.org/2000/svg">
<path d="M0 21.7733L5.42001 18.6378C6.39911 20.9108 8.08922 22.4377 11.1897 22.4377C14.1736 22.4377 14.9196 21.2604 14.9196 20.1997C14.9196 18.5096 13.3461 17.8452 9.2315 16.703C5.15193 15.5607 1.15394 13.6025 1.15394 8.34565C1.14228 3.06551 5.60651 0 10.3621 0C14.873 0 18.4047 2.15635 20.4096 6.20096L15.1178 9.30144C14.1736 7.34324 12.8798 6.11937 10.3738 6.11937C8.41559 6.11937 7.42483 7.09847 7.42483 8.20578C7.42483 9.46462 8.08922 10.3272 12.367 11.621C16.5281 12.8798 21.1905 14.3251 21.1905 20.1298C21.1905 25.4216 16.9477 28.5687 10.9916 28.5687C5.22186 28.5571 1.52693 25.8179 0 21.7733Z" fill="white"/>
<path d="M42.6842 8.39258V28.0095H36.798V26.1679C35.7373 27.6249 33.7791 28.5574 31.1914 28.5574C27.2284 28.5574 23.8599 25.7366 23.8599 20.4332V8.39258H29.7461V19.5706C29.7461 22.0067 31.273 23.1373 33.1613 23.1373C35.3177 23.1373 36.8096 21.8785 36.8096 19.0927V8.39258H42.6842Z" fill="white"/>
<path d="M68.1055 18.2078C68.1055 24.0475 63.8744 28.57 58.7341 28.57C56.1115 28.57 54.1883 27.6725 52.8828 26.1805V35.8666H46.9966V8.39353H52.8828V10.2352C54.1766 8.74321 56.0999 7.8457 58.7341 7.8457C63.8627 7.8457 68.1055 12.3566 68.1055 18.2078ZM62.2192 18.2078C62.2192 15.2705 60.261 13.4172 57.5569 13.4172C54.8527 13.4172 52.8828 15.2589 52.8828 18.2078C52.8828 21.1451 54.841 22.9984 57.5569 22.9984C60.2494 22.9984 62.2192 21.1451 62.2192 18.2078Z" fill="white"/>
<path d="M81.3966 23.3131C83.0051 23.3131 84.3805 22.6837 85.1615 21.8212L89.8705 24.5254C87.9472 27.1946 85.0449 28.57 81.315 28.57C74.6012 28.57 70.4517 24.0591 70.4517 18.2078C70.4517 12.3566 74.6828 7.8457 80.8837 7.8457C86.6068 7.8457 90.8496 12.275 90.8496 18.2078C90.8496 19.0354 90.768 19.8164 90.6164 20.5623H76.6876C77.4336 22.6021 79.2402 23.3131 81.3966 23.3131ZM85.0099 16.168C84.3805 13.8951 82.6205 13.0676 80.8488 13.0676C78.6108 13.0676 77.1189 14.1632 76.571 16.168H85.0099Z" fill="white"/>
<path d="M105.962 14.0455C103.526 13.6492 100.064 15.2694 100.064 19.1508V28.021H94.1782V8.39239H100.064V11.8892C100.845 9.25493 103.456 8.35742 105.927 8.35742" fill="white"/>
<path d="M116.733 14.0463V20.9933C116.733 22.6834 118.178 22.8349 120.778 22.6834V28.0218C113.085 28.8028 110.847 26.4949 110.847 20.9933V14.0463H107.711V8.3932H110.847V4.6633L116.733 2.8916V8.3932H120.778V14.0463H116.733Z" fill="white"/>
<path d="M133.683 23.3131C135.291 23.3131 136.667 22.6837 137.448 21.8212L142.157 24.5254C140.233 27.1946 137.331 28.57 133.601 28.57C126.887 28.57 122.738 24.0591 122.738 18.2078C122.738 12.3566 126.969 7.8457 133.17 7.8457C138.893 7.8457 143.136 12.275 143.136 18.2078C143.136 19.0354 143.054 19.8164 142.903 20.5623H128.974C129.72 22.6021 131.526 23.3131 133.683 23.3131ZM137.296 16.168C136.667 13.8951 134.907 13.0676 133.135 13.0676C130.897 13.0676 129.405 14.1632 128.857 16.168H137.296Z" fill="white"/>
<path d="M156.401 19.7799C158.453 19.1039 159.945 17.8567 160.003 15.6887L146.785 20.083C146.4 19.4303 146.074 18.7076 145.818 17.9266C143.941 12.3085 146.564 6.76026 152.007 4.95359C157.893 2.99539 163.336 5.94434 165.178 11.4809C167.02 17.0291 164.502 22.624 158.138 24.7454C154.595 25.9226 151.412 25.538 148.743 23.6147L152.357 19.5585C153.371 20.1296 154.874 20.2928 156.401 19.7799ZM158.721 11.4809C157.567 9.75583 155.807 9.18469 153.685 9.8957C152.007 10.4552 150.597 11.7956 150.725 14.1501L158.721 11.4809Z" fill="white"/>
<path d="M143.532 41.5541C137.879 41.5541 132.145 40.1204 126.829 37.3347C125.687 36.7402 125.244 35.3299 125.85 34.1876C126.445 33.0453 127.855 32.614 128.997 33.2085C135.641 36.6936 143.031 37.7543 149.803 36.1807C156.447 34.6422 161.704 30.7491 164.606 25.2125C165.201 24.0702 166.611 23.6389 167.753 24.2334C168.896 24.8279 169.327 26.2382 168.733 27.3805C165.189 34.1409 158.837 38.8733 150.852 40.7266C148.463 41.2744 146.003 41.5541 143.532 41.5541Z" fill="#18BDEF"/>
</svg>
