<svg width="29" height="32" viewBox="0 0 29 32" fill="none" xmlns="http://www.w3.org/2000/svg">
<path d="M25.3816 18.3172V15.4483H23.1747V18.7586C23.1708 18.9036 23.1984 19.0478 23.2555 19.1811C23.3127 19.3145 23.398 19.4338 23.5057 19.531L26.485 22.5103V24.2759H2.20916V22.5103L5.18847 19.531C5.29617 19.4338 5.38153 19.3145 5.43868 19.1811C5.49582 19.0478 5.5234 18.9036 5.5195 18.7586V13.2414C5.5195 10.9002 6.44955 8.65483 8.10504 6.99933C9.76054 5.34384 12.0059 4.41379 14.3471 4.41379C15.8993 4.41409 17.4231 4.82935 18.7609 5.61655V3.08966C17.7119 2.61975 16.5942 2.32169 15.4505 2.2069V0H13.2436V2.2069C10.5266 2.51664 8.01672 3.80976 6.18732 5.84242C4.35793 7.87508 3.33542 10.5068 3.31261 13.2414V18.3172L0.333297 21.2966C0.225597 21.3937 0.140237 21.5131 0.0830901 21.6465C0.0259436 21.7798 -0.00163159 21.9239 0.00226243 22.069V25.3793C-0.00749086 25.5267 0.0143661 25.6746 0.0663699 25.8129C0.118374 25.9511 0.199324 26.0767 0.303801 26.1812C0.408278 26.2857 0.53387 26.3666 0.672169 26.4186C0.810467 26.4707 0.95828 26.4925 1.10571 26.4828H8.82985C8.82985 27.946 9.41113 29.3494 10.4458 30.384C11.4805 31.4187 12.8838 32 14.3471 32C15.8104 32 17.2137 31.4187 18.2484 30.384C19.2831 29.3494 19.8643 27.946 19.8643 26.4828H27.5885C27.7359 26.4925 27.8837 26.4707 28.022 26.4186C28.1603 26.3666 28.2859 26.2857 28.3904 26.1812C28.4949 26.0767 28.5758 25.9511 28.6278 25.8129C28.6798 25.6746 28.7017 25.5267 28.6919 25.3793V22.069C28.6958 21.9239 28.6682 21.7798 28.6111 21.6465C28.5539 21.5131 28.4686 21.3937 28.3609 21.2966L25.3816 18.3172ZM14.3471 29.7931C13.4691 29.7931 12.6271 29.4443 12.0063 28.8235C11.3855 28.2027 11.0367 27.3607 11.0367 26.4828H17.6574C17.6574 27.3607 17.3087 28.2027 16.6879 28.8235C16.067 29.4443 15.225 29.7931 14.3471 29.7931Z" fill="#151515"/>
</svg>
