<svg width="32" height="32" viewBox="0 0 32 32" fill="none" xmlns="http://www.w3.org/2000/svg">
<path d="M31.7162 30.3681L23.9397 22.5916C26.0257 20.1933 27.2887 17.0643 27.2887 13.6443C27.2887 6.11619 21.1654 0 13.6444 0C6.11619 0 0 6.12328 0 13.6443C0 21.1654 6.12329 27.2887 13.6444 27.2887C17.0643 27.2887 20.1934 26.0257 22.5916 23.9397L30.3681 31.7162C30.5526 31.9007 30.8009 32 31.0422 32C31.2834 32 31.5317 31.9078 31.7162 31.7162C32.0852 31.3472 32.0852 30.737 31.7162 30.3681ZM1.90865 13.6443C1.90865 7.17339 7.1734 1.91574 13.6373 1.91574C20.1082 1.91574 25.3659 7.18049 25.3659 13.6443C25.3659 20.1082 20.1082 25.38 13.6373 25.38C7.1734 25.38 1.90865 20.1153 1.90865 13.6443Z" fill="#151515"/>
</svg>
