<svg width="11" height="12" viewBox="0 0 11 12" fill="none" xmlns="http://www.w3.org/2000/svg">
<path fill-rule="evenodd" clip-rule="evenodd" d="M0.165764 11.3344C0.275859 11.4453 0.420765 11.5004 0.56567 11.5004C0.710438 11.5004 0.855343 11.4446 0.966267 11.3344L5.50042 6.80023L10.0349 11.3344C10.1452 11.4453 10.2899 11.5004 10.4349 11.5004C10.5789 11.5004 10.7237 11.4446 10.8346 11.3344C11.0556 11.1134 11.0556 10.755 10.8346 10.534L6.30066 5.99999L10.8346 1.46602C11.0556 1.24487 11.0556 0.886539 10.8346 0.66552C10.6136 0.444501 10.2553 0.444501 10.0343 0.66552L5.50023 5.19955L0.966267 0.66552C0.74511 0.444501 0.386783 0.444501 0.165764 0.66552C-0.0552547 0.886539 -0.0552547 1.24487 0.165764 1.46602L4.69995 5.99983L0.165764 10.534C-0.0552547 10.755 -0.0552547 11.1134 0.165764 11.3344Z" fill="#BDBDBD"/>
</svg>
