<svg width="36" height="32" viewBox="0 0 36 32" fill="none" xmlns="http://www.w3.org/2000/svg">
<path fill-rule="evenodd" clip-rule="evenodd" d="M35.2058 5.04483H7.03708L6.54164 3.01168C6.11374 1.23806 4.53526 -0.00748155 2.72607 3.38254e-05H0.793708C0.355381 3.38254e-05 0 0.358515 0 0.800919C0 1.24307 0.355381 1.60155 0.793708 1.60155H2.72607C3.80265 1.59278 4.74412 2.33229 4.99992 3.38745L8.85422 19.2651C9.28435 21.0352 10.8641 22.2752 12.6705 22.2612H29.1576C30.9894 22.276 32.5835 21.0011 32.9873 19.1992L35.9799 6.00504C36.034 5.77056 35.9776 5.52406 35.8269 5.33693C35.6752 5.14879 35.4464 5.04107 35.2058 5.04483ZM31.4399 18.8473C31.198 19.9187 30.2471 20.674 29.1576 20.6597H12.6705C11.5954 20.6715 10.6535 19.9352 10.3967 18.8821L7.42549 6.64635H34.2097L31.4399 18.8473ZM25.7252 24.8467C23.767 24.8467 22.1794 26.4477 22.1794 28.423C22.1794 30.3987 23.7665 32 25.7247 32C27.6834 32 29.2706 30.3987 29.2706 28.4235C29.2689 26.4487 27.6824 24.8487 25.7252 24.8467ZM25.7252 30.3985C24.6434 30.3985 23.767 29.5142 23.767 28.4235C23.767 27.3325 24.6434 26.4482 25.7247 26.4482C26.8065 26.4477 27.6829 27.3325 27.6829 28.423C27.6817 29.5134 26.806 30.3967 25.7252 30.3985ZM11.4418 28.423C11.4418 26.4477 13.0295 24.8467 14.9878 24.8467C16.9452 24.8487 18.5317 26.4487 18.5334 28.4235C18.5334 30.3987 16.946 32 14.9875 32C13.0293 32 11.4418 30.3987 11.4418 28.423ZM13.0295 28.4235C13.0295 29.5142 13.9062 30.3985 14.9878 30.3985C16.0686 30.3967 16.9445 29.5134 16.9457 28.423C16.9457 27.3325 16.0691 26.4477 14.9875 26.4482C13.9062 26.4482 13.0295 27.3325 13.0295 28.4235Z" fill="#151515"/>
</svg>
