<svg width="221" height="81" viewBox="0 0 221 81" fill="none" xmlns="http://www.w3.org/2000/svg">
<path d="M12.12 48.812C19.32 48.812 22.8 45.132 22.8 40.252C22.8 30.292 7.48 33.132 7.48 28.892C7.48 27.292 8.84 26.212 11.28 26.212C14 26.212 16.88 27.132 19.04 29.132L22.2 24.972C19.56 22.532 16.04 21.252 11.8 21.252C5.52 21.252 1.68 24.932 1.68 29.372C1.68 39.412 17.04 36.172 17.04 40.892C17.04 42.412 15.52 43.852 12.4 43.852C8.72 43.852 5.8 42.212 3.92 40.252L0.84 44.572C3.32 47.092 7 48.812 12.12 48.812ZM44.6244 48.332V29.012H39.5444V42.092C38.6644 43.212 37.1044 44.292 35.1444 44.292C32.9844 44.292 31.5844 43.412 31.5844 40.732V29.012H26.5044V42.732C26.5044 46.492 28.5044 48.812 32.7444 48.812C35.9044 48.812 38.2244 47.372 39.5444 45.892V48.332H44.6244ZM60.7084 48.812C65.6684 48.812 69.2684 45.092 69.2684 38.652C69.2684 32.212 65.6684 28.532 60.7084 28.532C58.3484 28.532 56.2284 29.572 54.7484 31.452V29.012H49.6684V55.692H54.7484V45.852C56.3084 47.852 58.4284 48.812 60.7084 48.812ZM59.1084 44.292C57.4684 44.292 55.5884 43.292 54.7484 42.092V35.252C55.5884 34.012 57.4684 33.052 59.1084 33.052C62.0284 33.052 63.9884 35.332 63.9884 38.652C63.9884 42.012 62.0284 44.292 59.1084 44.292ZM82.0688 48.812C85.0688 48.812 88.1088 47.892 90.0288 46.132L87.7888 42.852C86.5488 44.052 84.2688 44.772 82.6288 44.772C79.3488 44.772 77.3888 42.732 77.0688 40.292H91.4288V39.172C91.4288 32.852 87.5088 28.532 81.7488 28.532C75.8688 28.532 71.7488 33.052 71.7488 38.652C71.7488 44.852 76.1888 48.812 82.0688 48.812ZM86.5088 36.852H76.9888C77.2288 34.932 78.5888 32.572 81.7488 32.572C85.1088 32.572 86.3888 35.012 86.5088 36.852ZM100.178 48.332V35.572C101.018 34.332 103.258 33.372 104.938 33.372C105.498 33.372 105.978 33.412 106.338 33.492V28.532C103.938 28.532 101.538 29.932 100.178 31.652V29.012H95.0981V48.332H100.178ZM115.992 48.812C118.112 48.812 119.472 48.252 120.232 47.572L119.152 43.732C118.872 44.012 118.152 44.292 117.392 44.292C116.272 44.292 115.632 43.372 115.632 42.172V33.452H119.552V29.012H115.632V23.732H110.512V29.012H107.312V33.452H110.512V43.532C110.512 46.972 112.432 48.812 115.992 48.812ZM132.108 48.812C135.108 48.812 138.148 47.892 140.068 46.132L137.828 42.852C136.588 44.052 134.308 44.772 132.668 44.772C129.388 44.772 127.428 42.732 127.108 40.292H141.468V39.172C141.468 32.852 137.548 28.532 131.788 28.532C125.908 28.532 121.788 33.052 121.788 38.652C121.788 44.852 126.228 48.812 132.108 48.812ZM136.548 36.852H127.028C127.268 34.932 128.628 32.572 131.788 32.572C135.148 32.572 136.428 35.012 136.548 36.852Z" fill="white"/>
<path d="M156.409 48.8115C153.409 48.8115 150.369 47.8915 148.449 46.1315L150.689 42.8515C151.929 44.0515 154.209 44.7715 155.849 44.7715C159.129 44.7715 161.089 42.7315 161.409 40.2915H147.049V39.1715C147.049 32.8515 150.969 28.5315 156.729 28.5315C162.609 28.5315 166.729 33.0515 166.729 38.6515C166.729 44.8515 162.289 48.8115 156.409 48.8115ZM151.969 36.8515H161.489C161.249 34.9315 159.889 32.5715 156.729 32.5715C153.369 32.5715 152.089 35.0115 151.969 36.8515Z" fill="white"/>
<circle r="8.47293" transform="matrix(0.300027 -0.953931 -0.953931 -0.300027 185.625 10.6375)" fill="#C7452A"/>
<circle r="6.59005" transform="matrix(0.300027 -0.953931 -0.953931 -0.300027 186.595 32.6548)" fill="#1AAAAD"/>
<circle r="10.3558" transform="matrix(0.300027 -0.953931 -0.953931 -0.300027 207.845 21.5733)" fill="#FFC62E"/>
</svg>
